<svg id="Groupe_12" data-name="Groupe 12" xmlns="http://www.w3.org/2000/svg" width="38" height="42.585" viewBox="0 0 38 42.585">
  <path id="Tracé_2" data-name="Tracé 2" d="M89.222,55.277a3.43,3.43,0,1,1-4.773,4.9l-11.507-11.2,2.249-2.192a4.113,4.113,0,0,0,0-5.9L72.8,38.549,84.449,27.205a3.43,3.43,0,0,1,4.773,4.9L77.321,43.69Z" transform="translate(-52.452 -19.048)" fill="#20076a"/>
  <path id="Tracé_3" data-name="Tracé 3" d="M5.385,60.692a3.767,3.767,0,0,1-2.629-6.476L14.4,42.889,2.756,31.554a3.765,3.765,0,0,1,5.25-5.4L22.431,40.191a3.773,3.773,0,0,1,0,5.4L8.006,59.626A3.741,3.741,0,0,1,5.385,60.692Z" transform="translate(-1.606 -18.107)" fill="#20076a"/>
  <circle id="Ellipse_1" data-name="Ellipse 1" cx="5.164" cy="5.164" r="5.164" transform="translate(13.743)" fill="#20076a"/>
</svg>
