<svg xmlns="http://www.w3.org/2000/svg" width="28.742" height="32.21" viewBox="0 0 28.742 32.21">
  <g id="logo" transform="translate(-7 1)">
    <g id="Group_12" data-name="Group 12" transform="translate(7 -1)">
      <path id="Path_2" data-name="Path 2" d="M85.221,48.243a2.594,2.594,0,1,1-3.61,3.705l-8.7-8.474,1.7-1.658a3.111,3.111,0,0,0,0-4.462L72.8,35.591l8.811-8.58a2.594,2.594,0,0,1,3.61,3.705l-9,8.764Z" transform="translate(-57.41 -20.841)" fill="#25016f"/>
      <path id="Path_3" data-name="Path 3" d="M4.465,52.018a2.849,2.849,0,0,1-1.989-4.9l8.807-8.567L2.476,29.979A2.848,2.848,0,0,1,6.447,25.9l10.91,10.616a2.854,2.854,0,0,1,0,4.084L6.447,51.211A2.83,2.83,0,0,1,4.465,52.018Z" transform="translate(-1.606 -19.808)" fill="#25016f"/>
      <circle id="Ellipse_1" data-name="Ellipse 1" cx="3.906" cy="3.906" r="3.906" transform="translate(10.395)" fill="#25016f"/>
    </g>
  </g>
</svg>
