<?xml version="1.0" encoding="utf-8"?>
<!-- Generator: Adobe Illustrator 25.4.1, SVG Export Plug-In . SVG Version: 6.00 Build 0)  -->
<svg version="1.1" id="Calque_1" xmlns="http://www.w3.org/2000/svg" xmlns:xlink="http://www.w3.org/1999/xlink" x="0px" y="0px"
	 viewBox="0 0 1920 1080" style="enable-background:new 0 0 1920 1080;" xml:space="preserve">
<style type="text/css">
	.st0{fill:#1D5CA0;}
</style>
<g>
	<path class="st0" d="M1435.4,346.3c-1,3.1-1.9,6.7-3.3,9.9c-7.8,17.6-15.9,35.2-23.8,52.8c-5.6,12.5-11.1,25-16.6,37.5
		c-1.3,2.9-2.6,5.9-4.3,8.6c-0.7,1.1-2.4,2-3.8,2.2c-0.7,0.1-2.1-1.2-2.5-2.2c-1.3-2.9-2.3-6-3.3-9.1
		c-19.7-58.3-39.4-116.6-59.2-174.9c-6.3-18.7-13.1-37.2-19.2-55.9c-2.2-6.7-5.9-11-12.9-12.9c-15.5-4.3-30.9-8.9-46.4-13.4
		c-18.5-5.4-37-11.2-55.6-16.2c-6-1.6-5.5-4.6-2.6-8.5c12.6-16.7,25.1-33.4,37.7-50.1c5.3-7.1,10.8-14,16-21.2
		c3-4.2,6.3-5.2,11.4-3.6c19.6,6,39.4,11.6,59,17.3c13.9,4.1,27.7,8.6,41.7,12.1c9.2,2.3,14,7.5,16.9,16.5
		c12.2,37.9,25,75.6,37.8,113.4c10.2,30.1,20.5,60.2,30.7,90.3C1434,341.1,1434.6,343.5,1435.4,346.3z"/>
	<path class="st0" d="M1585.8,580.2c0.9-40.2,0.6-80.5,2.9-120.6c1.7-29,0.3-58,2.3-86.8c1.4-21.3,1.6-42.6,1.9-63.9
		c0-2.4,0.1-4.8,0-7.2c-0.3-8.2-1.2-9.6-9.1-12c-15.4-4.6-30.9-9-46.3-13.5c-18.9-5.5-37.8-11.1-56.7-16.7c-5.3-1.6-5.7-2.9-2.3-7.6
		c17.3-23.8,34.6-47.4,51.8-71.2c3.6-5,7.6-6.3,13.4-4.5c16.2,4.9,32.5,9.4,48.7,14.1c18.2,5.3,36.3,10.6,54.4,16
		c8.5,2.5,9.7,3.7,9.5,12.8c-0.5,23.3,0.1,46.6-1.8,70c-1.6,19.6,0,39.5-1.2,59.1c-1.8,30.6-0.8,61.2-2.7,91.7
		c-1.5,23.7-1.1,47.5-1.9,71.2c-0.1,3.2,0,6.4-0.2,9.7c-0.7,11.9-4.1,22.4-11.5,32.3c-14.3,18.9-27.6,38.6-41.3,58
		c-1.2,1.6-2.1,3.5-3.5,4.9c-1.6,1.7-3.8,4.6-5.2,4.3c-3.9-0.9-1.7-4.7-1.7-7.1c-0.2-10.9-0.1-21.7-0.1-32.6
		C1585.5,580.2,1585.7,580.2,1585.8,580.2z"/>
	<path class="st0" d="M1147.5,195.4c-0.5,66.4-1,132.8-1.4,199.1c0,6.7-1.8,12.3-5.9,17.8c-16.8,22.1-33.1,44.5-49.7,66.9
		c-1,1.3-1.8,2.8-3,3.8c-1.5,1.1-3.6,2.7-5,2.4c-3.1-0.6-1-3.1-0.8-4.8c0.4-4,0.8-8,0.8-12c0.2-72.9,0.4-145.7,0.5-218.6
		c0-14.1-0.1-13.9-13.8-17.9c-18.2-5.2-36.3-10.7-54.4-16.1c-6.1-1.8-6.4-2.9-2.4-8.2c12.6-16.7,25.3-33.3,37.9-50
		c4.1-5.4,8.4-10.8,12.2-16.5c4.8-7,10.6-8.6,18.8-6c19.6,6.2,39.4,11.6,59,17.4c6.8,2,7.8,3.2,7.9,10.2c0.2,10.9,0.1,21.7,0.1,32.6
		C1148.1,195.4,1147.8,195.4,1147.5,195.4z"/>
	<path class="st0" d="M910.9,335.2c0-27.4,0-54.7,0-82.1c0-3.2-0.1-6.4-0.1-9.7c0-4.6-2.1-7.3-6.8-8.6c-10.1-2.7-20.1-5.9-30.1-8.8
		c-9.6-2.8-19.3-5.6-29-8.4c-1.5-0.4-3.1-1-4.5-1.7c-2.5-1.4-3.2-3.5-1.5-6c4.5-6.2,9-12.4,13.6-18.4c13-16.9,26.4-33.4,39-50.6
		c4.3-5.9,8.6-7.3,15.3-5.2c19.2,6,38.6,11.4,57.8,17.4c9.7,3,10,3.6,10,13.6c0.1,26.2,0,52.3-0.1,78.5c0,31.8-0.2,63.6,0,95.4
		c0.1,8-2,14.7-7,21.1c-16.6,21.2-32.6,42.9-48.9,64.4c-1.4,1.9-3.1,3.7-4.9,5.2c-0.4,0.4-2.6-0.4-2.7-0.8c-0.4-1.9-0.4-4-0.4-6
		C910.8,394.7,910.8,365,910.9,335.2C910.8,335.2,910.9,335.2,910.9,335.2z"/>
	<path class="st0" d="M805.1,227.9c0,20.9-0.2,41.8,0.1,62.7c0.1,8-2.1,14.6-7.2,21c-16.5,20.8-32.4,42-48.6,63
		c-1.5,1.9-3,3.8-4.7,5.5c-1.5,1.5-4.3,0.5-4.6-1.7c-0.4-2.8-0.6-5.6-0.6-8.4c-0.1-11.7-0.1-23.3-0.1-35c0-29-0.1-57.9-0.2-86.9
		c0-3.2-0.1-6.4-0.1-9.7c0-4.6-2.1-7.5-6.5-8.9c-12.7-3.8-25.4-7.7-38.1-11.6c-8.1-2.5-16.2-4.8-24.2-7.4c-4.4-1.4-5-3-2-7
		c11.3-14.7,22.6-29.2,34-43.8c6.9-8.9,13.9-17.7,20.6-26.7c2.8-3.8,6-4.6,10.5-3.3c20.4,6.1,40.9,11.9,61.3,18.1
		c10,3,10.2,3.5,10.2,14.7c0.1,21.7,0,43.4,0,65.2C805.1,227.9,805.1,227.9,805.1,227.9z"/>
	<path class="st0" d="M636,204.7c0,12.5-0.1,25,0,37.4c0,5-1.2,9.3-4.4,13.4c-18.6,23.7-37,47.6-55.6,71.5c-0.5,0.6-1.3,1.6-1.7,1.5
		c-1.3-0.2-3.4-0.8-3.6-1.5c-0.6-2.7-0.5-5.6-0.6-8.4c-0.7-24.5-1.3-49-2-73.5c-0.2-8.1-0.5-8.5-8.3-11c-15.4-4.8-30.8-9.3-46.2-14
		c-3.8-1.2-7.7-2.3-11.5-3.7c-5.8-2.2-6.1-3.6-2.2-8.6c17.5-22.1,34.9-44.1,52.4-66.2c5.7-7.2,6.2-7.5,15.3-5
		c18.2,5.2,36.3,10.5,54.5,15.9c2.3,0.7,4.6,1.6,6.9,2.3c4.5,1.3,6.7,4.2,6.8,8.8c0.1,6.4,0.2,12.9,0.2,19.3
		C636,190.1,636,197.4,636,204.7C635.9,204.7,636,204.7,636,204.7z"/>
	<path class="st0" d="M684.3,704.4c-1.8,9.3-4.1,20.3-6.2,31.4c-1.2,5.9-2.3,11.8-3.2,17.8c-0.4,3,2,4.6,4.6,3.1
		c2.5-1.3,4.8-2.9,7.1-4.5c15.3-10.4,30.8-20.6,45.8-31.4c6.8-4.9,13.2-6.6,21.2-3.3c6.7,2.8,13.9,4.1,20.7,6.4c5.8,2,6.5,4.1,3,8.8
		c-17.1,22.9-34.3,45.7-51.4,68.6c-3.6,4.8-7.5,7.1-13.3,4.2c-5.3-2.6-11.9-2-16.1-7c3.1-4.6,6.1-9.3,9.4-13.8
		c7.6-10.4,15.5-20.6,23.1-31c0.8-1.1,0.8-2.9,1.2-4.4c-1.4,0.3-3.1,0.1-4.2,0.8c-16.3,10.4-32.4,21-48.6,31.5
		c-2.7,1.8-5.4,3.5-8,5.4c-4,2.8-8,2.9-12.6,1.5c-13.5-4.1-14.9-6.1-12.3-19.7c2.7-13.8,5.3-27.6,7.8-41.5c0.2-1.1-0.4-2.3-0.6-3.4
		c-1.3,0.6-3,0.8-3.7,1.7c-10.4,13.3-20.6,26.8-30.9,40.2c-1.2,1.6-2.3,3.3-3.7,4.8c-2.1,2.3-4.7,3.3-7.7,2.2
		c-6-2.1-11.9-4.6-17.8-6.9c-0.1-6.7,5.2-10.5,8.6-15.1c15-19.9,30.1-39.8,45.3-59.6c5-6.5,5.1-6.5,13.1-4.1
		c8.1,2.4,16.2,4.9,24.2,7.4C684.1,696.3,684.8,697.5,684.3,704.4z"/>
	<path class="st0" d="M1158.2,635.7c1.3-7.8,2.3-14.1,3.3-20.5c1.7-10.7,3.3-21.4,4.9-32.2c0.1-0.7-0.4-1.4-0.6-2.2
		c-0.7,0.3-1.7,0.5-2.1,1c-8.9,11.9-17.9,23.8-26.5,35.9c-10.6,14.9-10.4,14.8-27.4,9.1c-9.8-3.3-8.3-4.9-3.5-11.2
		c16.2-21.5,32.1-43.3,48.2-64.9c5.1-6.8,5.4-6.7,13-4.5c7.7,2.2,15.5,4.5,23.1,6.9c7.1,2.3,7.6,3,6.5,10.3c-2,13.5-4.3,27-6.4,40.5
		c-0.1,0.8-0.6,1.6-0.6,2.3c0.2,2.7-0.5,6.4,1,7.9c2.6,2.6,4.9-0.9,7.1-2.4c16.3-11.1,32.7-22.1,48.7-33.5c6.2-4.4,12-5.4,19.1-2.7
		c7.1,2.8,14.6,4.4,21.9,6.8c4.3,1.4,5.1,3.5,3.1,7.3c-0.9,1.8-2.1,3.5-3.2,5.1c-15.4,21.1-31,42.1-46,63.5
		c-3.8,5.3-7.6,6.4-13.2,4.4c-1.5-0.5-3.1-0.8-4.7-1.2c-12.9-3.8-13.2-4.5-5.5-15.4c7.5-10.5,15.1-20.8,22.7-31.2
		c1.4-1.9,2.8-3.9,4-6c0.3-0.5,0.3-1.7-0.1-2.2c-0.3-0.4-1.5-0.6-2-0.3c-2.8,1.6-5.5,3.4-8.2,5.1c-15.9,10.3-31.7,20.7-47.6,30.8
		c-2.9,1.9-6.6,4.2-9.7,3.9c-5.5-0.5-11-2.4-16-4.8C1159.5,640.7,1158.9,637.1,1158.2,635.7z"/>
	<path class="st0" d="M1234.2,902.3c-1.3,0.3-2.3,0.3-2.8,0.7c-1.2,1.1-2.2,2.4-3.1,3.7c-8.4,11.8-16.8,23.6-25.2,35.4
		c-8.6,12-8.8,12-22.8,7.3c-12.2-4.1-12.4-4.2-4.9-14.9c15.3-21.7,30.9-43.2,46.3-64.8c3.5-4.9,7.5-6.5,13.5-5
		c19.2,4.8,20.5,6.1,24.3,25.9c2.5,13,5.1,26.1,7.6,39.1c0.4,2,1,3.9,1.6,5.8c1.2,3.4,2.9,3.9,5,1.2c3.4-4.5,6.7-9.1,10-13.6
		c7.3-10.1,14.7-20.2,21.8-30.4c2.8-3.9,6.1-4.9,10.4-3.3c2.3,0.8,4.6,1.5,6.9,2.2c12.3,4.1,12.6,5.1,5.4,15.2
		c-15.5,21.6-30.8,43.2-46.4,64.7c-5.3,7.4-5.5,7.3-13.9,4.8c-2.7-0.8-5.3-2.2-8.1-2.5c-9.8-1.1-13.1-7.4-14.6-16.2
		c-2.9-17-6.4-34-9.7-50.9C1235.3,905,1234.6,903.6,1234.2,902.3z"/>
	<path class="st0" d="M954.9,729.3c-7.3-2.7-14.1-4.9-20.7-7.7c-2.4-1-1.2-3.5,0.1-5.2c5.6-7.8,11.2-15.8,16.9-23.5
		c11.5-15.5,23.3-30.8,34.7-46.3c3.1-4.2,6.3-5.7,11.3-4c4.2,1.5,8.5,2.6,12.7,3.7c5.7,1.5,8.9,5,10,10.8
		c2.5,13.9,4.9,27.7,7.6,41.5c1,5.3,0.2,11.3,5.1,15.3c3.4-3.8,7.2-7.3,10.3-11.4c8.1-10.5,16-21.2,23.7-32
		c3.1-4.3,6.7-5.7,11.4-3.4c5.6,2.8,12.9,1.2,17.2,7.1c-3.4,4.9-6.6,9.9-10.1,14.8c-13.4,18.6-26.9,37.1-40.4,55.6
		c-1.2,1.6-2.4,3.3-3.6,4.8c-2.2,2.7-4.9,4-8.5,2.9c-6.1-1.9-12.3-3.7-18.5-5.6c-3.5-1.1-4.9-3.7-5.6-7.2c-2.4-13-4.9-26.1-7.3-39.1
		c-1.1-5.9-2-11.9-3.1-17.8c-0.2-1-1.2-2.3-2.1-2.6c-0.8-0.3-2.4,0.4-3,1.2c-4.5,5.6-9,11.4-13.3,17.2c-6.5,8.7-12.8,17.6-19.3,26.2
		C958.9,726.5,956.8,727.7,954.9,729.3z"/>
	<path class="st0" d="M1499.7,744.5c-4.4-1.3-11.5-3-18.1-5.7c-2-0.8-3.6-4.2-4.2-6.7c-3.5-15.3-6.6-30.6-9.8-46
		c-0.5-2.4-0.8-4.8-1.5-7.1c-0.7-2.2-1.8-4.2-2.8-6.3c-1.8,1.4-3.9,2.6-5.2,4.3c-7.9,10.7-15.5,21.5-23.3,32.3
		c-2.1,2.9-4.1,6.1-6.9,8.3c-2,1.6-5.3,2.9-7.6,2.5c-5.9-1.1-11.6-3.1-17.3-5.2c-0.8-0.3-1.4-2.8-1-4c0.5-1.9,1.9-3.5,3-5.2
		c15.7-21.9,31.3-43.9,47.1-65.7c4.8-6.6,5.1-6.5,13.1-4.2c3.5,1,6.9,2.1,10.5,2.9c6.2,1.4,9.8,5,11,11.3
		c2.4,12.2,4.9,24.4,7.5,36.6c1.3,5.9,2.9,11.7,4.5,17.5c0.7,2.4,2.9,2.9,4.6,1.1c1.9-2,3.7-4.2,5.3-6.5c7-9.9,13.8-19.8,20.7-29.6
		c1.6-2.3,3.3-4.6,5.1-6.7c2.2-2.6,5-4,8.5-3c5,1.5,10.1,2.6,15.1,4.3c4.2,1.4,4.7,3.3,2,7.3c-7.4,11-15,21.9-22.6,32.8
		c-8.1,11.5-16.3,22.9-24.4,34.4C1510.4,742,1507.5,745.1,1499.7,744.5z"/>
	<path class="st0" d="M1252.3,441.6c0-20.9-1-41.9,0.3-62.8c1.5-25.7,1.4-51.4,1.9-77.2c0-1.9,0.5-3.9,1.2-5.8
		c0.2-0.5,2.6-0.7,2.9-0.3c1.3,2,2.3,4.2,3.1,6.4c7.3,20.4,14.7,40.9,21.9,61.4c8.3,23.5,16.2,47.2,24.7,70.7
		c2.6,7.2,1.7,12.6-3.1,18.8c-14.4,18.9-28.1,38.3-42.1,57.5c-2.4,3.2-5,6.3-7.7,9.2c-0.3,0.3-2.7-0.3-2.8-0.7
		c-0.5-3.1-0.8-6.3-0.8-9.5c-0.1-22.5,0-45.1,0-67.6C1252,441.6,1252.2,441.6,1252.3,441.6z"/>
	<path class="st0" d="M1322.4,756.9c-0.2,8.4-4.4,14.1-10.6,18.4c-5.4,3.7-11.4,5.7-18,6.3c-2.8,0.2-4.5,2.3-2.9,5.1
		c4.1,6.9,1.9,13.1-1.4,19.4c-3,5.7-5.6,11.5-8.8,17.1c-0.8,1.4-3.3,3.1-4.6,2.8c-6.6-1.5-13.2-3.5-19.6-5.7c-3-1.1-4.1-3.9-2.8-7
		c1.6-3.7,3.7-7.1,5.3-10.8c1.3-2.9,2.5-5.9,2.9-9c0.7-5.3-1.7-9.8-6.8-11.5c-9.9-3.4-19.9-6.3-30-9.1c-3.7-1-6,1.7-7.9,4.3
		c-4.2,5.9-8.4,11.8-12.7,17.6c-1.2,1.6-2.1,3.7-3.7,4.7c-1.9,1.2-4.5,2.3-6.5,1.9c-5.5-1.1-10.9-2.7-16.2-4.5c-5-1.7-6-4.9-3-9.3
		c3.6-5.3,7.3-10.6,11.1-15.8c12.3-16.9,24.6-33.8,36.9-50.7c5.4-7.5,6.5-7.9,15-5.4c20.4,6.2,40.8,12.2,61.1,18.9
		c5.6,1.8,10.8,5.1,15.9,8.3C1320.5,746.1,1322.3,751.4,1322.4,756.9z M1272,769.4c3-0.4,5.4-0.6,7.7-1.2c6-1.7,10.6-6.6,10.6-11.7
		c0-5.8-4.5-8.2-9-10.1c-3.3-1.4-6.8-2.4-10.3-3.5c-2.7-0.8-5.5-1.4-8.1-2.2c-19-6.1-14-5.6-25.9,9.3c-4.5,5.7-3.6,8.2,3,10.5
		c6.4,2.3,13,4.3,19.5,6.1C1263.8,767.9,1268.2,768.6,1272,769.4z"/>
	<path class="st0" d="M1119.6,926.2c-23.5,0.7-43-4.2-60.4-16.7c-15.7-11.2-19.4-29.2-9.3-45.7c10.8-17.7,27.5-26.7,46.9-31.3
		c16.4-3.9,32.7-1.8,48.8,2.4c9.5,2.5,18.1,6.7,25.9,12.6c16.8,12.5,19.8,29.7,8.9,47.8c-7.4,12.3-18.3,20.2-31.3,25.4
		C1139,924.7,1128.5,927.9,1119.6,926.2z M1119.8,848.9c-13.6-0.7-24.4,5-34.1,13.4c-4.7,4.1-7.5,9.5-9.1,15.4
		c-2.9,10.4-0.5,18.6,7.6,23.3c17.3,10,35,11.3,52.5,0.7c8-4.9,14.1-11.9,17.5-20.9c4.2-11.1,0.5-21.3-10.2-26.2
		C1136.3,851,1128.2,848.2,1119.8,848.9z"/>
	<path class="st0" d="M561.4,758.9c-6.4-2-12.3-3.5-17.9-5.5c-3-1.1-4.3-3.9-3.1-6.9c1.3-3.3,3.2-6.4,5.1-9.5
		c8.3-14.1,6.4-19.3-9.3-24.7c-6.5-2.2-13.1-3.9-19.6-6c-4.4-1.5-7.9-0.3-10.6,3.3c-3.2,4.2-6.3,8.3-9.4,12.5
		c-1.2,1.6-2.3,3.3-3.6,4.9c-6.9,8.2-8.5,8.7-18.6,5.5c-16.2-5.1-16.3-5.2-6.4-18.2c15.8-20.8,31.9-41.3,47.7-62.1
		c3.2-4.2,6.5-5.2,11.4-3.7c21.1,6.6,42.3,12.9,63.3,19.6c6.1,2,11.9,5,16.2,10c6.3,7.4,6.5,14.1,0.5,21.8
		c-6.4,8.3-14.7,13.5-25.1,15.5c-3.6,0.7-4.8,2.3-3.1,5.8c2.1,4.3,1.6,8.7-0.5,12.8c-4,7.4-8.1,14.8-12.5,22
		C564.9,757.5,562.7,758.1,561.4,758.9z M561.2,701.8c2.5-0.5,6.5-0.9,10.2-2.2c4.9-1.8,7.9-5.7,8.1-11c0.2-4.9-3.9-6.8-7.6-8.2
		c-6.3-2.4-12.9-4.3-19.4-6.4c-16.2-5.3-16.9-5-26.1,9.3c-0.7,1-1.3,2-1.9,3.1c-1.5,2.6-0.7,5,1.8,5.9
		C537.1,696.4,547.8,701.1,561.2,701.8z"/>
	<path class="st0" d="M1348.9,696.5c-16.2,0.4-30.4-3.9-44.3-9.2c-10.6-3.9-18.1-12-24.4-20.9c-5.5-7.8-4.6-16.9-1.5-25.5
		c3.7-10.2,10.8-17.8,19.4-24c17.9-13,38.3-16.5,59.6-14c15.6,1.9,30.7,6.2,43.8,15.7c16.2,11.7,20,29.6,9.5,46.5
		c-8,12.8-19.6,21.1-33.6,26.2C1367.9,694.9,1358.1,697.3,1348.9,696.5z M1307.7,657c-0.7,6.8,3.8,12.6,11.4,15.9
		c12,5.4,24.5,7.7,37.4,3.6c14.2-4.4,24.7-12.6,29.2-27.7c2.1-7.1,0.9-12.7-4.2-17.5c-2.6-2.5-5.6-4.6-8.7-6.2
		c-17.7-9.1-39-6.5-54,6.6C1311.9,637.8,1308,645.5,1307.7,657z"/>
	<path class="st0" d="M411.4,708.6c-19.5,0.6-35.5-2.5-50.5-10.4c-7.3-3.9-13-9.5-17.9-15.9c-5.7-7.3-5.7-15.9-2.9-24.2
		c2.5-7.6,6.5-14.7,12.6-20.3c12.8-11.8,27.6-18.7,45-21.2c21.5-3.1,41.5,0.7,60.5,10.5c3.9,2,7.5,4.7,10.7,7.7
		c12,11.4,13.9,27.5,4.8,41.5c-13.3,20.3-32.8,30.1-56.5,32.2C414.3,708.9,411.5,708.6,411.4,708.6z M415,633.8
		c-9.4-0.9-18.1,2-26.3,6.5c-8.1,4.4-13.8,11.1-17.1,19.6c-4.9,12.4-0.7,22.4,11.5,27.5c12.8,5.3,25.9,6.2,38.8,1
		c13.3-5.4,23.1-14.6,26.9-28.9c2.3-8.5-0.5-15-8.2-19.3C432.7,635.7,424.4,633.1,415,633.8z"/>
	<path class="st0" d="M1409.2,824.1c-3.9-1-8.6-2.2-13.2-3.6c-11.2-3.4-22.3-6.9-33.5-10.3c-9.5-2.9-9.6-2.9-15,4.7
		c-8.3,11.6-8.1,12.2,5.6,16.2c14.3,4.2,28.6,8.5,42.8,12.8c2.7,0.8,5.4,1.8,7.9,3.1c0.8,0.4,1.7,2,1.6,2.9
		c-0.8,7.1-8.8,13.2-15.3,11.3c-26.6-7.9-53.2-15.9-79.8-24.2c-10.1-3.1-10.4-4.6-4.2-13.2c15.4-21.6,30.9-43.2,46.4-64.8
		c4.9-6.8,5.5-7.1,12.9-4.9c25.5,7.6,50.9,15.3,76.3,23c2.3,0.7,4.6,1.5,6.8,2.5c2.1,1,2.9,2.8,1.8,4.9c-0.9,1.8-1.9,3.5-3.1,5.2
		c-3.9,5.3-5.9,6.1-12.3,4.3c-8.1-2.3-16.2-4.8-24.3-7.2c-9.6-2.9-19.3-5.7-28.9-8.8c-4.6-1.5-7.8-0.4-10.3,3.5
		c-0.4,0.7-1,1.3-1.4,2c-6.3,8.8-5.9,9.5,4.3,12.6c12.7,3.8,25.4,7.7,38.1,11.7c2.7,0.8,5.4,1.8,7.9,3c0.9,0.4,1.9,1.8,2,2.7
		C1422.4,818.5,1415.2,824.7,1409.2,824.1z"/>
	<path class="st0" d="M898.4,631.7c-5.5-0.2-13.5,6.1-14.8,11.5c-0.3,1.2,0.6,3.5,1.6,4.1c2.8,1.5,5.9,2.4,9,3.3
		c11.5,3.5,23.1,6.9,34.7,10.4c2.7,0.8,5.4,1.8,7.9,3c0.8,0.4,1.7,2,1.6,2.9c-0.7,7-7.7,11.9-14.5,10c-15.1-4.3-30.1-8.7-45.1-13.6
		c-6.4-2.1-10.9-0.8-14.4,4.8c-1.5,2.4-3.3,4.5-4.9,6.9c-2.5,3.7-1.8,5.5,2.8,6.9c16.2,4.9,32.3,9.8,48.5,14.6
		c2.7,0.8,5.4,1.5,8.1,2.4c2.3,0.8,3.3,2.8,2,4.7c-2.2,3.4-4.7,6.5-7.4,9.5c-0.9,1-2.9,1.5-4.3,1.3c-3.2-0.4-6.3-1.2-9.4-2.1
		c-25-7.6-50-15.3-75-23c-1.1-0.4-2.3-0.6-3.4-1.1c-2.6-1.3-3.5-3.4-2.1-5.9c0.9-1.8,2.3-3.2,3.6-4.9c15.4-20.6,30.7-41.3,46.2-61.8
		c6.4-8.5,8.7-9.2,18.4-6.3c24.6,7.4,49.3,14.9,73.9,22.4c1.2,0.3,2.3,0.7,3.4,1.2c3.4,1.5,4.2,3.7,2.3,6.6
		c-1.1,1.7-2.6,3.1-3.6,4.8c-2.4,4.2-5.6,5.2-10.1,3.7c-8.4-2.7-16.9-5.1-25.4-7.7c-8.5-2.5-16.9-5.1-25.4-7.6
		C900.8,632.3,899.2,631.9,898.4,631.7z"/>
	<path class="st0" d="M867.9,764.8c-0.8,6.3-1.7,13.9-2.7,21.4c-2.4,17.5-4.8,35-7.2,52.4c-0.2,1.2-0.3,2.4-0.6,3.5
		c-1.4,5-3.9,6.5-8.9,5.2c-3.5-0.9-6.9-2.1-10.3-3.3c-10.8-3.7-10.9-3.7-9.3-15.1c1-7.5-0.3-10.6-7.5-12.5
		c-10.5-2.7-20.9-6-31.1-9.5c-5.1-1.7-9.4-0.9-13.6,2c-3.7,2.5-7.4,4.9-11,7.3c-3.9,2.6-8,3.5-12.6,1.6c-5.9-2.4-11.8-4.7-17.7-7
		c2.3-7,9.5-8.1,14.7-11.3c26.5-16.7,53.5-32.6,80-49.3c7.5-4.8,14.6-5.9,22.6-2.8c1.9,0.7,3.9,1.1,5.8,1.8
		C867.2,752.5,868,753.8,867.9,764.8z M837.8,776.5c-0.3-1-0.5-2.9-1.1-3c-1.4-0.3-3.3-0.3-4.5,0.4c-8.2,5-16.3,10.2-24.4,15.3
		c-0.7,0.4-1.7,1-1.7,1.6c0,1.3,0.1,3.6,0.7,3.8c7.6,2.5,15.3,4.7,23,6.7c2.3,0.6,3.7-1.3,4.1-3.4
		C835.3,790.9,836.5,783.8,837.8,776.5z"/>
	<path class="st0" d="M775.9,578.1c18-1.2,35.3,4.2,51.2,14.7c5.9,3.9,10.3,9.1,11.9,16.1c0.7,3.4,0.9,7.2,0.2,10.6
		c-1.1,6.2-3.3,7.3-9.4,5.8c-2.7-0.7-5.3-1.9-8.1-2.4c-6.9-1.3-11.5-4-12.4-12.2c-0.7-6.5-6.5-10.1-12.3-12.1
		c-24.9-8.4-43.3-3.1-59.9,17.9c-8.7,11-5.5,23.5,7,30.3c13.3,7.3,27.2,9.2,40.1,0.7c9-5.8,17-5.4,25.9-1.3c1.5,0.7,3,1.1,4.5,1.7
		c4.1,1.8,4.6,4.3,0.8,7c-12.7,9-26.1,15.1-42.3,15.4c-14.9,0.2-28.8-2.4-42.4-7.8c-10.8-4.3-19.7-10.8-25.3-21.3
		c-4-7.5-5-15-1.9-23.2c3.2-8.6,8.5-15.8,15.2-21.4c14.6-12.3,31.5-19.1,51-18.5C771.4,578.2,773,578.1,775.9,578.1z"/>
	<path class="st0" d="M349.7,613.5c-1.6-0.5-4.7-1.5-7.7-2.4c-12.3-3.8-24.6-7.4-36.8-11.5c-5.3-1.8-8.7-1-12.5,3.5
		c-9.3,11-9,12.3,4.5,16.2c10.4,3,20.8,6.3,31.1,9.7c4.6,1.5,5.2,3.8,2.4,8.2c-4.5,7-6.9,8-15,5.5c-10.8-3.2-21.5-6.6-32.3-9.9
		c-11-3.5-11-3.5-17.9,5.2c-4.7,6-9.8,11.8-14,18.1c-3.3,4.9-7.2,5.9-12.4,4.2c-4.6-1.5-9.3-2.7-13.8-4.4c-4.2-1.6-4.8-3.4-1.9-7.3
		c5.9-8.1,12.1-16,18.3-23.9c11.9-15.2,24.1-30.1,35.7-45.4c3.3-4.3,6.4-5,11.3-3.5c24.2,7.5,48.4,14.8,72.6,22.2
		c5.9,1.8,6.5,4.8,2.1,9.7C360.2,611.2,356.9,614.9,349.7,613.5z"/>
	<path class="st0" d="M1019.3,802c-2.6,3.5-5,7.3-8,10.5c-2.6,2.8-6,1.1-9.1,0.2c-7.3-2.2-14.7-4.4-22-6.5
		c-7.9-2.3-8.4-2.2-13.2,4.2c-11.7,15.8-23.1,32-35.1,47.6c-10.6,13.6-5.8,12.5-22.3,8c-3.5-0.9-7-1.9-10.4-3.2
		c-2.8-1.1-3.4-3.1-1.5-5.8c4.7-6.5,9.6-12.9,14.4-19.4c9.1-12.3,18.2-24.6,27.1-37c3.2-4.5,2.8-6.1-2.4-7.8
		c-7.7-2.5-15.5-4.5-23.1-7.1c-6-2.1-6.5-4.7-2.5-9.8c3.8-4.9,8.2-7.4,14.6-5.4c28.9,8.9,57.8,17.7,86.6,26.5
		c1.5,0.5,3.1,1.1,4.4,1.9C1017.9,799.3,1018.3,800.5,1019.3,802z"/>
	<path class="st0" d="M1115.6,777.8c-7.6-2.4-14.9-4.6-22.1-7.1c-0.8-0.3-1.6-3-1.1-4c1.4-2.9,3.3-5.5,5.1-8.1
		c10.7-14.6,21.4-29.1,32.1-43.7c1.2-1.6,2.5-3.1,3.6-4.8c2.7-4.1,2-6.7-2.6-8.2c-8.4-2.7-16.9-5.1-25.3-7.8c-3.9-1.2-4.5-3-2.5-6.1
		c1.3-2,3-3.8,4.3-5.8c2.6-4,5.9-4.9,10.4-3.5c9.9,3.2,20,6.2,29.9,9.2c18.4,5.6,36.9,11.1,55.3,16.9c3.3,1,7.8,2.7,8.8,5.2
		c1.9,4.7-3.3,7.6-6.1,10.8c-2.4,2.8-5.8,2-9,1.1c-7.7-2.3-15.5-4.4-23.1-6.9c-4.9-1.6-8.7-0.5-11.8,3.4c-2,2.5-3.8,5.2-5.7,7.8
		c-10.6,14.6-21.2,29.3-31.9,43.8c-1.4,1.9-3,3.8-4.7,5.5C1118.5,776.5,1117,777.1,1115.6,777.8z"/>
	<path class="st0" d="M1513.8,386.9c0,4.4,0.3,8.9-0.1,13.3c-0.3,3.1-0.8,6.5-2.1,9.3c-11.8,24.3-23.2,48.7-35.9,72.5
		c-6.4,12-15.1,22.8-23,34c-10.2,14.5-20.7,28.8-31.1,43.1c-1.6,2.3-3.6,4.3-5.5,6.4c-0.5,0.5-1.6,0.8-2.1,0.6s-1-1.5-0.7-2
		c1.2-3,2.5-5.9,3.9-8.8c24.8-50.6,49.6-101.3,74.4-151.9c4.8-9.8,9.2-19.7,13.9-29.5c1-2.2,2.3-4.3,3.9-6c0.4-0.5,3.6,0.5,3.7,1
		c0.6,6,0.8,12,1.1,18C1514.1,386.9,1513.9,386.9,1513.8,386.9z"/>
	<path class="st0" d="M1001.3,894.5c-7.2-2.6-14.5-4.9-21.5-7.7c-2.2-0.9-1.8-3.3-0.6-5.2c3.1-4.7,6.1-9.4,9.4-14
		c13.9-19.1,28-38.1,42-57.2c4.7-6.4,4.7-6.4,11.8-4.5c4.7,1.2,9.3,2.5,13.9,4c6.4,2.1,6.9,3.6,2.8,9.4c-4.6,6.6-9.6,12.8-14.3,19.3
		c-10.8,14.9-21.6,29.9-32.4,44.8c-2.1,2.9-4.4,5.7-6.8,8.4C1004.6,893,1003,893.5,1001.3,894.5z"/>
</g>
</svg>
