<?xml version="1.0" encoding="utf-8"?>
<!-- Generator: Adobe Illustrator 26.0.3, SVG Export Plug-In . SVG Version: 6.00 Build 0)  -->
<svg version="1.1" id="Layer_1" xmlns="http://www.w3.org/2000/svg" xmlns:xlink="http://www.w3.org/1999/xlink" x="0px" y="0px"
	 viewBox="0 0 731 498" style="enable-background:new 0 0 731 498;" xml:space="preserve">
<style type="text/css">
	.st0{opacity:0.1;fill:#C7C8F5;enable-background:new;}
	.st1{opacity:0.69;fill:#C7C8F5;enable-background:new    ;}
	.st2{opacity:0.41;}
	.st3{opacity:0.41;fill:#444472;enable-background:new    ;}
	.st4{fill:#6667AB;}
	.st5{fill:#C7C8F5;}
	.st6{fill:#EDEDED;}
	.st7{fill:#FFC278;}
	.st8{fill:#E1E3EF;}
	.st9{fill:#FF7648;}
	.st10{fill:#8F98FF;}
</style>
<path id="Tracé_100" class="st0" d="M101.3,498c-31.4,0.3-78.4-17.1-70.5-56.1c5.3-26.4-16.9-51.3-21-77.9
	c-4.7-30.6,12.4-63.2,41.6-79.2c10.3-5.6,22.6-9.7,29.7-18.7c22.1-27.4-15-61.6-0.8-98.4c8.2-21.1,32.3-32.7,64.3-30.8
	c32.9,2.1,64.5-4,68.5-33.9c3.4-24,3.1-41,28.5-61.6C284,7.1,389.6,2.5,411.1,67.1c6.3,18.7,24,59.7,85.8,25
	C545,65,658.8,96.3,622.4,174.3c-14.4,30.8,13.9,40.6,57.6,56.6c32.7,11.9,60.2,71.4-6.9,122.6c-9.7,7.3,12.9,28.1,22.3,35.6
	c53.9,43.5,3.2,107.7-47.4,108.9C647.8,498,132.7,497.6,101.3,498z M175.8,80.4c-17.9-4-23.5,14.5-22.9,27.9
	c0.2,2.6,0.3,5.3,1.5,7.6c1.8,3.2,5.3,5.3,8.9,6.3c5.8,1.6,12.3,1.3,18.2,0c3.9-0.8,7.7-2.1,10.5-4.8
	C202.9,106.4,189.2,83.3,175.8,80.4z M481.4,72.5c-0.3,4.7-4,8.7-8.4,10.6c-4.4,2.1-9.4,2.6-14.2,2.9c-6.9,0.5-15,0.5-19.7-4.5
	c-3.2-3.4-4-8.5-3.4-13.1c1.9-11.6,9.4-23.1,22.9-21.6C469,48.2,481.9,62.7,481.4,72.5L481.4,72.5z M498.3,44.6
	c-1.7,1.1-3.8,1.5-5.8,1c-1.1-0.2-2.1-0.6-2.9-1.3c-5.8-4.2-3.5-12.1,3.9-11.3C499.3,33.7,504.9,40.3,498.3,44.6L498.3,44.6z
	 M673.8,189.8c1.9,2.7,3.4,6.1,2.3,9.2c-1,2.2-2.8,3.9-5,4.8c-4.5,2.1-10,1.6-14.7-0.3c-4.7-1.8-8.7-4.8-12.6-8.1
	c-1.8-1.3-3.3-2.9-4.4-4.8c-0.6-1.4-0.9-3-0.8-4.5c-0.2-2.7,0.2-5.5,1-8.1c1.3-3.3,3.1-6.4,5.3-9.2c3.2-4.2,7.9-9.2,14-8.2
	c3.7,0.6,4.5,2.7,4.7,6.1c0,3.7-0.8,7.3,0.6,11C665.9,182.5,670.9,185.7,673.8,189.8L673.8,189.8z M39.3,269.1
	c-6,5-16.1,4.2-21.3-1.8c-18.1-21-2.1-72.6,31.6-65.2c12.6,2.7,22.1,16.8,16.4,29c-3.2,6.9-11.8,10.5-15.8,16.9
	C46.1,254.9,45.8,263.8,39.3,269.1z"/>
<path id="Tracé_101" class="st1" d="M326.2,312c0-7.6-5-14-7.3-21.3c-18.5-63.1-46.9-21.4-43.2-57.9c3.1-29.7-39.5-44-43.1-31.1
	c-2.7,10.3-16.3,16-22.7,7.3c-8.2-11-5-26.6-12.3-38.1c-4.6-6.9-12.1-11.3-20.3-11.9c-7.4-0.6-15.2,1.6-22.4-0.3
	c-12.9-3.5-19.5-19-32.7-20.8c-1.1-0.2-2.3-0.1-3.4,0.3c-2.1,0.8-2.9,3.2-3.4,5.3c-1.5,5.6-2.7,11.9,0.6,16.8
	c3.1,4.4,9.2,6.1,12.1,10.5c2.9,4.4,1.9,10.2,0.2,15c-1.8,4.8-4.4,9.8-4,15c0.3,7.4,6.5,13.9,13.5,16.9c7.3,3.2,15.3,3.7,23.4,3.7
	c2.1-0.1,4.1,0.1,6.1,0.6c6.3,2.1,7.7,10.6,3.7,15.6c-1.6,1.9-3.7,3.5-4.8,5.6c-3.1,5.6,2.4,12.6,8.9,14.5
	c6.5,1.8,13.4,0.3,20.2-0.5s14.4-0.6,19.4,3.5c6.3,5.5,5.6,14.8,9.4,22.3c3.9,7.9,12.7,12.7,21.8,14.8c9,2.1,18.4,1.8,27.7,2.3
	c19.5,1,39,5.2,55.8,14.5"/>
<path id="Tracé_103" class="st1" d="M244.3,358.5c-3.4,5.8-9,9.8-14.5,13.7c-11.9,8.2-24.5,15.8-38.4,19.8c-3.5,1.3-7.2,1.8-11,1.6
	c-3.7-0.3-7.4-1.8-9.7-4.8c-3.1-4-2.7-9.7-3.4-14.8c-0.1-1.6-0.7-3.1-1.8-4.4c-2.7-2.6-6.9-0.2-9.8,2.1c-2.4,1.9-4.8,3.9-7.1,5.8
	c-2.9,2.4-6.8,4.8-10.3,3.4c-2.9-1.3-4.2-5-3.4-8.1s3.2-5.5,5.8-7.4c2.6-1.8,5.6-3.2,8.2-5.2c0.6-0.4,1.2-0.9,1.5-1.6
	c0.6-1.8-1.3-3.4-2.9-4c-3.9-1.5-8.2-1.4-11.9,0.3c-3.7,1.6-6.5,4.7-9.7,7.1s-7.1,4.5-11,3.7c-3.7-0.8-6.8-3.9-8.7-7.3
	c-2.9-4.8,0-14.8,8.4-15c4.7-0.2,9.4,0,14,0c3.1,0,6.9-0.8,7.4-3.9c0.3-2.4-2.3-4.2-4.5-5.2c-8.9-3.7-19-2.3-28.5-3.5
	c-14.7-1.9-9.2-25.6,8.2-25.3c4.6,0.1,9,1.2,13.1,3.4c4.7,2.4,8.7,6.3,13.9,7.6c1.8,0.6,3.8,0.6,5.6,0c1.9-0.8,2.9-2.7,2.6-4.7
	c-0.5-1.9-2.4-2.9-4-4c-4.5-3.4-6.5-9.7-6-15.3c0.3-3.4,1.5-6.9,4.4-8.4c3.5-1.9,8.1,0,10.6,3.1c2.7,2.9,4,6.8,6.1,10.2
	c2.1,3.4,5.3,6.6,9.4,6.8c0.7,0.1,1.4-0.1,1.9-0.5c0.4-0.4,0.7-0.8,1-1.3c1.5-3.5,0.2-7.6-0.3-11.5s0.8-8.5,4.5-9.5
	c3.1-0.8,6.1,1.5,7.6,4.4c1.5,2.7,1.9,6,3.2,8.9c3.5,8.9,14.5,13.9,23.5,11c2.6-0.8,5-2.3,7.6-2.7c4.4-0.8,9,1,12.6,3.7
	c3.5,2.9,6.1,6.6,8.5,10.5c6.1,9.8,11.6,21.8,7.6,32.7"/>
<g id="Groupe_81" transform="translate(120.865 317.287)" class="st2">
	<path id="Tracé_104" class="st3" d="M9.1,18.3c0.5-0.2,1-0.2,1.5-0.3C10,18.2,9.5,18.2,9.1,18.3z"/>
	<path id="Tracé_105" class="st3" d="M15,16.7c-1.5,0.5-3,1-4.5,1.3C12.1,17.8,13.6,17.4,15,16.7z"/>
</g>
<path id="Tracé_106" class="st1" d="M297.8,377.8c1.4-9.1,8.1-16.2,11.8-24.5c32.4-73.2,55.2-17.6,58.1-62.4
	c2.5-36.6,51.5-46.3,52.9-30.1c1,12.9,14.6,22.1,23.4,12.8c11.1-11.8,10.6-31.3,20.7-44c6-7.3,15-11.4,24.4-11
	c8.2,0.5,16.2,4.7,24.4,3.6c14.7-2,24.8-19.7,39.6-19.4c1.3-0.1,2.5,0.2,3.6,0.9c2.1,1.5,2.6,4.5,2.7,7.3c0.5,6.9,0.8,15-4,20.2
	c-4.1,4.8-11.1,5.8-15.1,10.7c-4.1,4.8-4.1,12-3.2,18.2c1,6.3,2.8,12.6,1.6,18.9c-1.8,8.8-9.6,15.6-18.1,18.2
	c-8.4,2.6-17.5,1.7-26,0.3c-2.3-0.5-4.6-0.6-6.9-0.3c-7.3,1.5-10.5,11.6-7.2,18.3c1.2,2.6,3.3,4.9,4.2,7.8
	c2.2,7.4-5.1,14.9-12.4,15.9c-7.4,1.1-14.6-2-21.8-4.1c-7.2-2.1-15.3-3.4-21.6,0.9c-8,5.4-9.1,17.1-14.4,25.2
	c-5.7,8.8-16.3,13.2-26.6,14c-10.1,0.9-20.3-1-30.5-2.2C336.4,371,317.8,369.5,297.8,377.8z"/>
<path id="Tracé_107" class="st1" d="M275.2,372.9c15.3-16.3,30.8-32.6,42.7-51.6c19.1-30.6,28.3-66.5,26.2-102.5
	c-0.3-3.9-1.7-8.9-5.6-8.9c-1.7,0.1-3.3,0.8-4.5,2.1c-3.4,2.7-6.4,5.7-9.1,9.1c-1.8,2.4-4.1,5.1-7,4.8c-2.1-0.2-3.5-2-4.5-3.7
	c-4.8-8.6-1.9-19.5,3.3-27.7c5.2-8.2,12.7-14.9,17.9-23.2c5.2-8.3,7.9-19.3,3-27.7c-1.3-2.1-3.2-4.1-5.6-4.1
	c-1.1,0.1-2.1,0.4-3.1,0.9c-10.7,5.2-14.7,18.3-19.8,29c-0.4,1.2-1.3,2.2-2.4,2.9c-1.8,0.6-3.5-0.8-4.7-2.3
	c-5.7-8.4-0.6-19.5,3.6-28.8c5.7-12.5,10.1-26.8,6.1-40.1c-0.9-2.9-2.4-5.8-4.9-7.5c-6.1-3.6-13.9,2.8-15.2,9.7s0.9,14,1,21.1
	c0,1.8-0.2,3.5-1.5,4.8c-2.1,1.9-5.8,0.6-7.2-1.8c-1.4-2.4-1.2-5.5-0.9-8.4c2-22.6,3.1-47.4-10.9-65.2c-1.4-1.8-3-3.6-5.3-4.2
	c-4.3-1.2-8.6,2.2-10.7,6c-5.7,10.1-3.1,22.9,1.5,33.6s11.1,20.7,13.3,32c0.8,4,0.9,8.4-0.7,12.1c-1.6,3.7-5.5,6.7-9.6,6.4
	c-5.3-0.5-8.7-5.9-10.9-10.7c-1.9-3.9-3.8-7.8-5.7-11.5c-1.1-2.3-2.7-4.9-5.3-4.9c-3.2-0.2-4.9,4-4.9,7.4
	c-0.1,9.5,5.2,18.4,11.9,25.3c6.6,6.8,14.6,12.2,21.9,18.4c2,1.5,3.7,3.5,5,5.7c1.4,2.9,1.2,6.5,0.6,9.7
	c-1.6,6.3-5.8,11.7-11.4,14.9c-4.2,2.4-9.1,3.5-12.8,6.5c-6.4,5.3-7.9,14.5-3.6,21.6c3.8,6,11.1,8.6,18,9.8s14.2,1.1,20.9,3.2
	c3.1,1,6.1,2.3,7.9,4.9c2.6,3.7,1.9,8.7,0.1,12.7c-2.8,6.2-7.8,11.1-14,13.8c-5.7,2.4-12,2.8-17.8,4.7c-5.8,1.7-11.8,5.5-13.3,11.5
	c-2.2,8.7,6.2,16.3,14.2,20.4c8,3.9,17.5,7.2,21.3,15.3c2.7,5.5,1.8,12.1,0.7,18.1c-2.5,13-6.7,25.6-12.2,37.6"/>
<path id="Tracé_108" class="st1" d="M418,224.1c7.1-5.4,12.9-12.4,16.9-20.3c4-8.2,5.6-17.6,6.9-26.9c1.3-10.3,2.3-20.6,2.6-31.1
	c-15.5,2.3-30.8,5.3-45.3,11.3s-28.5,14.5-38.4,27.4c-16.9,22.3-16.3,51.6-16.3,51.6S380.5,252.5,418,224.1z"/>
<g id="Groupe_82" transform="translate(334.846 243.195)" class="st2">
	<path id="Tracé_109" class="st3" d="M48,17.8c-0.2,0.6-0.3,1.1-0.5,1.8c0.2-0.6,0.3-1.2,0.3-1.8C47.8,17.6,48,17.8,48,17.8z"/>
	<path id="Tracé_110" class="st3" d="M45.6,25c0.6-1.8,1.3-3.5,1.9-5.5C47,21.4,46.4,23.3,45.6,25z"/>
</g>
<path id="Tracé_112" class="st4" d="M353,164.5L243.4,404.6l4.5,2.1l109.6-240.2L353,164.5z"/>
<path id="Tracé_113" class="st4" d="M242.5,412.4c-3.7-1.7-5.4-6.1-3.7-9.8c1.7-3.7,6.1-5.4,9.8-3.7c62.5,28.8,136.5,1.5,165.4-61
	c28.8-62.5,1.5-136.5-61-165.4c-0.3-0.1-0.5-0.2-0.8-0.4c-3.7-1.7-5.4-6.1-3.7-9.8c1.7-3.7,6.1-5.4,9.8-3.7
	c69.8,31.9,100.8,114.7,68.9,184.7c-31.8,70-114.3,101.1-184.3,69.3C242.7,412.5,242.6,412.4,242.5,412.4z"/>
<path id="Tracé_114" class="st5" d="M300.4,402.4c64.5,0,116.8-52.3,116.8-116.8s-52.3-116.8-116.8-116.8s-116.8,52.3-116.8,116.8
	C183.7,350.1,235.9,402.4,300.4,402.4L300.4,402.4z"/>
<path id="Tracé_115" class="st4" d="M406.7,334.2c-4,8.7-8.9,16.9-14.8,24.4c-13.9,5.9-29.3,7.7-44.2,5.2c-1.9-0.2-3.8-0.9-5.3-2.1
	c-4.4-3.9-0.6-10.8-0.6-16.6c0-4.8-2.9-9.2-5.6-13.2c-6.1-9-12.3-20.2-8.5-30.6c3.7-10.5,16.1-16.1,19.4-26.8
	c2.9-10.2-3.7-20.6-3.9-31.3c-0.2-8.2,3.9-16.1,9.5-21.9c5.8-5.8,13.2-9.7,21-12.4c4.1-1.5,8.5-2.3,12.9-2.4
	C417.2,240,426.9,290.2,406.7,334.2z M264.9,394.7c6-2.9,11-8.4,12.1-14.8c1.1-7.1-2.4-14-6.8-19.7c-4.5-5.6-9.8-10.5-13.5-16.6
	c-1.7-2.5-2.6-5.5-2.7-8.5c0.2-8.4,9.2-14.2,10.2-22.4c1-7.3-4.8-13.9-11.3-17.1c-6.6-3.2-14-4-21.1-6s-14.2-5.8-17.1-12.6
	c-3.5-8.5,1-18.7-3.9-26.8c-3.1-5.2-11.1-8.5-18.1-9.7c-24.4,58.2,1.8,125.2,59.2,151.4c3.4,1.5,6.6,2.9,10,4
	C262.9,395.6,264,395.2,264.9,394.7z M232.5,190.7c0.3,1.3,0.8,2.5,1.5,3.7c5.6,11.9,17.7,21,19.5,34c0.5,3.5,0.3,7.6,2.6,10.3
	c1.3,1.4,2.9,2.4,4.7,3.1c14.7,6.1,33.1,1.8,43.2-10.5c9.8-11.9,11.6-28.5,19.4-41.9c2.3-3.9,5-7.6,5-12.1c0-1.9-0.6-3.7-1.6-5.3
	C294.1,164.3,259.8,171.1,232.5,190.7L232.5,190.7z"/>
<path id="Tracé_116" class="st4" d="M311.9,422.2H289v54.5h22.9V422.2z"/>
<path id="Tracé_117" class="st4" d="M390.9,496.3H210c-5.9-0.1-10.6-4.9-10.5-10.7c0.1-5.8,4.7-10.5,10.5-10.5h180.8
	c5.9,0,10.6,4.7,10.6,10.6l0,0c0.1,5.8-4.6,10.6-10.4,10.6H390.9z"/>
<path id="Tracé_118" class="st6" d="M638.9,381.1c11.5,0,20.8-9.3,20.8-20.8s-9.3-20.8-20.8-20.8H395.4c8.1,13.9,8.1,27.7,0,41.6
	L638.9,381.1L638.9,381.1z"/>
<path id="Tracé_119" class="st7" d="M638.9,381.1c11.5,0,20.9-9.4,20.8-20.9c0-0.3,0-0.6,0-0.8c-0.5-11.1-10.2-19.7-21.3-19.7
	H392.2c-1.8,0-3.2-1.4-3.2-3.2c0-1.8,1.4-3.2,3.2-3.2h246.7c15,0,27.1,12.1,27.1,27.1s-12.1,27.1-27.1,27.1H392.2
	c-1.8,0-3.2-1.4-3.2-3.2s1.4-3.2,3.2-3.2L638.9,381.1L638.9,381.1z"/>
<path id="Tracé_120" class="st8" d="M651,343.5l-19.7,0.2l-36.9,0.3l-74,0.2l-74-0.2l-36.9-0.2l-11.9-0.2c-0.2-0.2-0.2-0.3-0.3-0.5
	l12.1-0.2l36.9-0.2l74-0.2l74,0.2l36.9,0.2l19,0.2C650.5,343.2,650.8,343.3,651,343.5z M655.9,348.4c0-0.2-0.2-0.2-0.2-0.3
	l-24.2-0.3l-36.9-0.2l-74-0.2l-74,0.2l-36.9,0.2l-10.2,0.2c0,0.2,0.2,0.3,0.2,0.6l10,0.2l36.9,0.2l74,0.2l73.9-0.2l36.9-0.2
	L655.9,348.4z M658.4,353.2c0-0.1-0.1-0.2-0.2-0.2l0,0l-26.9-0.3l-36.9-0.2l-74-0.2l-74,0.2l-36.9,0.2l-8.7,0.2c0,0.2,0,0.5,0.2,0.6
	l8.7,0.2l36.9,0.2l74,0.2l73.9-0.3l36.9-0.2L658.4,353.2z M397.2,377.7l12.1,0.2l36.9,0.2l74,0.2l74-0.2l36.9-0.2l19-0.2
	c0.2-0.2,0.3-0.3,0.5-0.3l-19.7-0.2L594,377l-74-0.2l-74,0.2l-36.9,0.2l-11.9,0.2C397.3,377.2,397.3,377.6,397.2,377.7z
	 M655.7,372.7c0-0.2,0.2-0.2,0.2-0.3l-24.3-0.3l-36.9-0.2l-74-0.2l-74,0.2l-36.9,0.2l-10,0.2c0,0.2-0.2,0.3-0.2,0.6l10.2,0.2
	l36.9,0.2l74,0.2l74-0.2l36.9-0.2L655.7,372.7z M658.3,367.7c0-0.1,0.1-0.2,0.2-0.2l0,0l-26.9-0.3l-36.9-0.2l-74-0.2l-74,0.2
	l-36.9,0.2l-8.7,0.2c0,0.2,0,0.5-0.2,0.6l8.7,0.2l36.9,0.2l74,0.2l74-0.2l36.9-0.2L658.3,367.7z M659.6,362.9v-0.2l-28.2-0.3
	l-36.9-0.2l-74-0.2l-74,0.2l-36.9,0.2l-8.1,0.2v0.6l8.1,0.2l36.9,0.2l74,0.2l74-0.3l36.9-0.2L659.6,362.9z M659.6,358v-0.2
	l-28.1-0.3l-36.9-0.2l-74-0.2l-74,0.2l-36.9,0.2l-8.1,0.2v0.6l8.1,0.2l36.9,0.2l74,0.2l73.9-0.3l36.9-0.2L659.6,358z"/>
<path id="Tracé_121" class="st7" d="M421.7,379.3l10.6-6.1l10.6,6.1v-26.8h-21.3L421.7,379.3L421.7,379.3z"/>
<path id="Tracé_122" class="st6" d="M416.2,435.5c-11.5,0-20.8-9.3-20.8-20.8s9.3-20.8,20.8-20.8h243.5c-8.1,13.9-8.1,27.7,0,41.6
	L416.2,435.5L416.2,435.5z"/>
<path id="Tracé_123" class="st9" d="M416.2,435.5c-11.5,0-20.9-9.4-20.8-20.9c0-0.3,0-0.6,0-0.8c0.5-11.1,10.2-19.7,21.3-19.7
	h246.1c1.8,0,3.2-1.4,3.2-3.2s-1.4-3.2-3.2-3.2H416.1c-15,0-27.1,12.1-27.1,27.1s12.1,27.1,27.1,27.1h246.7c1.8,0,3.2-1.4,3.2-3.2
	s-1.4-3.2-3.2-3.2L416.2,435.5L416.2,435.5z"/>
<path id="Tracé_124" class="st8" d="M404.6,397.4l19-0.2l36.9-0.2l74-0.2l74,0.2l36.9,0.2l12.1,0.2c-0.2,0.2-0.2,0.3-0.3,0.5
	l-11.9,0.2l-36.9,0.2l-74,0.2l-74-0.2l-36.9-0.2l-19.7-0.2C404.1,397.8,404.4,397.6,404.6,397.4z M423.6,402.9l36.9,0.2l74,0.2
	l74-0.2l36.9-0.2l10-0.2c0-0.2,0.2-0.3,0.2-0.6l-10.2-0.2l-36.9-0.2l-74-0.2l-74,0.2l-36.9,0.2l-24.2,0.3c0,0.2-0.2,0.2-0.2,0.3
	L423.6,402.9z M423.6,407.7l36.9,0.2l74,0.2l74-0.2l36.9-0.2l8.7-0.2c0-0.2,0-0.5,0.2-0.6l-8.7-0.2l-36.9-0.2l-74-0.2l-74,0.2
	l-36.9,0.2l-26.9,0.3c0,0.1-0.1,0.2-0.2,0.2l0,0L423.6,407.7z M657.6,431.4l-11.9-0.2l-36.9-0.2l-74-0.2l-74,0.2l-36.9,0.2
	l-19.7,0.2c0.2,0.2,0.3,0.3,0.5,0.3l19,0.2l36.9,0.2l74,0.2l74-0.2l36.9-0.2l12.1-0.2C657.8,431.9,657.8,431.6,657.6,431.4
	L657.6,431.4z M423.6,427.2l36.9,0.2l74,0.2l74-0.2l36.9-0.2l10.2-0.2c0-0.2-0.2-0.3-0.2-0.6l-10-0.2l-36.9-0.2l-74-0.2l-74,0.2
	l-36.9,0.2l-24.4,0.3c0,0.2,0.2,0.2,0.2,0.3L423.6,427.2z M423.6,422.4l36.9,0.2l74,0.2l74-0.2l36.9-0.2l8.7-0.2
	c0-0.2,0-0.5-0.2-0.6l-8.7-0.2l-36.9-0.2l-74-0.2l-74,0.2l-36.9,0.2l-26.9,0.3c0,0.1,0.1,0.2,0.2,0.2l0,0L423.6,422.4z M423.6,417.6
	l36.9,0.2l74,0.2l74-0.2l36.9-0.2l8.1-0.2v-0.6l-8.1-0.2l-36.9-0.2l-74-0.2l-74,0.2l-36.9,0.2l-28.2,0.3v0.2L423.6,417.6z
	 M423.6,412.7l36.9,0.2l74,0.2l74-0.2l36.9-0.2l8.1-0.2v-0.6l-8.1-0.2l-36.9-0.2l-74-0.2l-74,0.2l-36.9,0.2l-28.1,0.3v0.2
	L423.6,412.7z"/>
<path id="Tracé_125" class="st6" d="M638.9,489.8c11.5,0,20.8-9.3,20.8-20.8s-9.3-20.8-20.8-20.8H395.4c8.1,13.9,8.1,27.7,0,41.6
	L638.9,489.8L638.9,489.8z"/>
<path id="Tracé_126" class="st10" d="M638.9,489.8c11.5,0,20.9-9.4,20.8-20.9c0-0.3,0-0.6,0-0.8c-0.5-11.1-10.2-19.7-21.3-19.7
	H392.3c-1.8,0-3.2-1.4-3.2-3.2s1.4-3.2,3.2-3.2H639c15,0,27.1,12.1,27.1,27.1S654,496.2,639,496.2H392.3c-1.8,0-3.2-1.4-3.2-3.2
	s1.4-3.2,3.2-3.2L638.9,489.8L638.9,489.8z"/>
<path id="Tracé_127" class="st8" d="M651,452.2l-19.7,0.2l-36.9,0.2l-74,0.2l-74-0.2l-36.9-0.2l-11.9-0.2c-0.2-0.2-0.2-0.3-0.3-0.5
	l12.1-0.2l36.9-0.2l74-0.2l74,0.2l36.9,0.2l19,0.2C650.5,451.8,650.8,452,651,452.2z M655.9,457.1c0-0.2-0.2-0.2-0.2-0.3l-24.2-0.3
	l-36.9-0.2l-74-0.2l-74,0.2l-36.9,0.2l-10.2,0.2c0,0.2,0.2,0.3,0.2,0.6l10,0.2l36.9,0.2l74,0.2l74-0.2l36.9-0.2L655.9,457.1z
	 M658.4,461.9c0-0.1-0.1-0.2-0.2-0.2l0,0l-26.9-0.3l-36.9-0.2l-74-0.2l-74,0.2l-36.9,0.2l-8.7,0.2c0,0.2,0,0.5,0.2,0.6l8.7,0.2
	l36.9,0.2l74,0.2l74-0.2l36.9-0.2L658.4,461.9z M655.7,481.4c0-0.2,0.2-0.2,0.2-0.3l-24.3-0.3l-36.9-0.2l-74-0.2l-74,0.2l-36.9,0.2
	l-10,0.2c0,0.2-0.2,0.3-0.2,0.6l10.2,0.2l36.9,0.2l74,0.2l74-0.2l36.9-0.2L655.7,481.4z M658.3,476.4c0-0.1,0.1-0.2,0.2-0.2l0,0
	l-26.9-0.3l-36.9-0.2l-74-0.2l-74,0.2l-36.9,0.2l-8.7,0.2c0,0.2,0,0.5-0.2,0.6l8.7,0.2l36.9,0.2l74,0.2l74-0.2l36.9-0.2L658.3,476.4
	z M659.6,471.6v-0.2l-28.2-0.3l-36.9-0.2l-74-0.2l-74,0.2l-36.9,0.2l-8.1,0.2v0.6l8.1,0.2l36.9,0.2l74,0.2l74-0.2l36.9-0.2
	L659.6,471.6z M659.6,466.7v-0.2l-28.1-0.3l-36.9-0.2l-74-0.2l-74,0.2l-36.9,0.2l-8.1,0.2v0.6l8.1,0.2l36.9,0.2l74,0.2l74-0.2
	l36.9-0.2L659.6,466.7z"/>
<path id="Tracé_128" class="st10" d="M480.2,488l10.6-6.1l10.5,6.1v-26.9h-21.1V488z"/>
</svg>
