<svg xmlns="http://www.w3.org/2000/svg" width="484.336" height="504" viewBox="0 0 484.336 504">
  <g id="Groupe_311" data-name="Groupe 311" transform="translate(-786.814 -195)">
    <path id="Tracé_701" data-name="Tracé 701" d="M604.8,451.112c.172,6.546.248,24.332-5.2,24.676s-6.6.2-6.368,2.815,6.037,20.378,4.712,22.358-4.362,6.03-21.607-2.082c0,0,3.948-1.274-3.146,11.227s-9.769,19.047-15.748,18.958-47.518-17.276-57.306-19.824-10.743-4.458-14.4-.331.478.465,0,3.267.159,16.805.159,22.536,4.948,24.651,5.343,26.975-3.05,7.985-8.017,8.972-22.568,2.834-29.369,0-10.189-8.087-14.232-13.1-2.675-2.312-9.405-7.17-14.041-16.557-14.525-21.543.318-6.145,4.7-13.194,22.842-31.885,26.338-36.979,4.126-9.119,10.189-15.379,45.945-4.852,47.652-5.878-2.159-1.153-2.776-3.955-19.741-22.256-22.288-24.625-6.031-3.369-6.833-8.278-6.648-16.971-8.189-20.5-3.464-8.584-1.541-9.552,16.869,7.864,20.537,10.775,6.241,4.8,6.241,4.8l15.92,4.5,25.72,3.872,10.934,2.675H559.29Z" transform="translate(559.652 -13.409)" fill="#fefefe"/>
    <path id="Tracé_805" data-name="Tracé 805" d="M-160.457-3406.553c2.8-3.36,3.3-4.78,4.573-4.27s16.57,15.932,18.482,16.7,4.843-.765,6.373-2.294,2.294-3.569,6.373-3.951-10.057,7.858-6.489,7.221,28.777,2.607,30.434,2.352,11.8-2.764,12.312-1.107,3.545-2.287,4.565-1.522a7.987,7.987,0,0,1,2.9,3.508c.51,1.53,4.206,22.051,4.079,23.07s-9.559-.255-9.432,1.912a41.823,41.823,0,0,0,.892,6.628c.382,1.4-1.912,4.333-3.059,4.716s2.677-.8,2.167.219-5.481-5.215,0-4.195,5.631,9.518,7.925,9.773.615-.189,1.507,1.978,3.824,11.344,4.589,13.383,1.4,2.8,1.275,3.569-9.942,1.147-9.942,1.147-21.541-11.217-24.6-12.619-12.315-4.107-13.687-5.481a96.9,96.9,0,0,1-7.157-7.775c-1.275-1.835-10.86-11.2-12.919-13.256s-6.147-5.219-7.617-6.983-1.916-1.793-2.6-4.146-8.628-22.1-9.314-23.794S-160.457-3406.553-160.457-3406.553Z" transform="translate(1183 3787)" fill="#dfd5fc"/>
    <g id="gregArtboard_1" data-name="gregArtboard 1" transform="translate(667.103 90.41)">
      <g id="Layer_3" data-name="Layer 3" transform="translate(120.602 124.547)">
        <path id="Tracé_697" data-name="Tracé 697" d="M336.367,155.8l4.566,4.343L328.044,240.2l-43.15,15.493-2.547-4.458-14.01-1.91L263.67,225.9l22.524-89.967h19.25Z" transform="translate(-172.888 -135.93)" fill="#fefefe"/>
        <path id="Tracé_698" data-name="Tracé 698" d="M162.018,463.182l3.159-6.877,47.429-27.344-.6,7.591,10.246,8.247-28.669,63.712L181.7,518.857l-52.237,30.872-7.088-8.157-1.261-6.3,10.73-20.46Z" transform="translate(-121.11 -242.359)" fill="#fefefe"/>
        <path id="Tracé_699" data-name="Tracé 699" d="M681.27,696.536l22.836-49.683,4.7-6.482,55.363,68.622,4.3,10.577L729.7,768.538l-48.429-72" transform="translate(-324.56 -319.143)" fill="#fefefe"/>
        <path id="Tracé_700" data-name="Tracé 700" d="M223.5,704.1a33.91,33.91,0,0,0,16.238,8.559" transform="translate(-158.298 -342.29)" fill="#fefefe"/>
      </g>
      <path id="Tracé_702" data-name="Tracé 702" d="M391.788,614.307c-3.4,4.209-6.884,8.361-10.151,12.666-1.738,2.286-5.19,4.069-3.038,7.9l-2.114.306-8.864-10.826-4.458-2.547c-4.279-4.158-8.813-8.094-12.736-12.545a98.424,98.424,0,0,1-10.01-13.481c-.866-1.407.191-4.012.363-6.062,1.866.376,4.235.153,5.515,1.223,8.368,7,16.506,14.3,24.7,21.5,1.344,1.184,2.63,2.439,4.317,4.005L388.267,601.2q2.847,5.5,5.7,10.991Z" transform="translate(-80.038 -176.199)" fill="#010101"/>
      <path id="Tracé_703" data-name="Tracé 703" d="M490.7,676.558l-5.387,1.592c.739,2.057,1.5,4.005,2.14,6,3.63,11.36,4.33,22.205-3.885,32.343-4.458,5.464-7.642,11.9-11.914,17.531-1.14,1.516-4.018,1.732-6.1,2.547-.338-2.184-1.541-4.706-.86-6.5a184.4,184.4,0,0,1,8.845-19.855c2.974-5.661,4.757-10.781,2.216-17.4-2.292-5.992-2.789-12.679-4.139-19.359l8.106,1.089Z" transform="translate(-125.223 -206.61)" fill="#010101"/>
      <path id="Tracé_704" data-name="Tracé 704" d="M495.486,377.81c-.885-2.726-1.777-5.451-3.076-9.431l11.106,8.992.993-.637c-1.089-4.891-2.178-9.781-3.521-15.774,9.03,10.01,15.035,20.295,16.4,32.916l3.534,1.21c6.89-4.388,14.532-3.63,22.173-3.986,8.132-.382,16.213-1.77,24.313-2.751,1.337-.159,2.662-.484,5.094-.936-.694,3.248-1.2,5.61-1.707,7.979l-1.859,4.324c-1.274-.923-2.484-2.305-3.916-2.636s-3.082.388-4.642.637l-3.636-1.172c12.309-2.885,12.309-2.885,12.188-5.158L525.9,394.545c0,.637-.057,1.312-.089,1.968l15.181,1.879,12.462,3.445-23.1-1.961-14.112-3.139c-.07-.573-.134-1.14-.2-1.707-2.038-7.718-3.865-15.532-10.087-21.651q.8,4.317,1.617,8.622c-.439.446-.872.9-1.312,1.35l-7.928-7.151-1.547,1.274a49.9,49.9,0,0,0,3.821,5.184c3.324,3.515,6.826,6.858,10.259,10.272-.414.446-.828.9-1.274,1.344l-15.283-13.29Z" transform="translate(-135.364 -93.114)"/>
      <path id="Tracé_705" data-name="Tracé 705" d="M429.66,545.222c5.9-8.336,11.965-16.557,17.614-25.071a33.147,33.147,0,0,0,5.133-11.087c2.9-14.01,8.126-18.779,22.447-18.626,11.131.115,22.288.752,33.381,1.159l2.547-.879,4.706.955c-4,.471-8,1.305-12.01,1.344-10.762.1-21.53-.478-32.279-.147-10.055.3-15.283,6.164-15.754,16.92a26.883,26.883,0,0,0,2.98-2.5c8.622-9.788,19.537-14.4,32.3-12.233,13.411,2.273,26.605,5.852,39.889,8.864L528.377,505c-13.545-2.63-27.019-5.731-40.66-7.731-10.94-1.573-20.269,3.076-27.153,11.354-10.227,12.348-19.874,25.16-29.77,37.775Z" transform="translate(-112.573 -140.139)"/>
      <path id="Tracé_706" data-name="Tracé 706" d="M703.46,221.5l1.325-1.312q11.348,29,22.7,58.006c.834,2.146,1.573,4.33,2.6,7.151,14.411-14.188,29.076-26.746,46.486-35.8l-32.33,25.676c-3.572,3.012-7.215,5.948-10.654,9.113a3.793,3.793,0,0,0-.637,3.133c.1.427,1.961.923,2.738.637,4.337-1.63,8.584-3.5,12.857-5.279l16.264-6.247c4.98-1.312,9.985-2.547,14.933-3.961,3.98-1.146,7.9-2.547,11.838-3.821.178.446.35.9.522,1.344-6.457,2.484-12.844,5.177-19.391,7.4-11.405,3.865-22.855,7.642-34.387,11.068-6.948,2.07-7.986,1.433-10.692-5.419C719.469,262.658,711.49,242.07,703.46,221.5Z" transform="translate(-212.018 -41.986)"/>
      <path id="Tracé_707" data-name="Tracé 707" d="M783.526,295.759l-16.264,6.247-11.8,2.388-.382-1.452,9.043-7.336L798.8,273l1.127,1.637-20.059,13.449.72,1.388,24.982-12.736.7,1.089-13.143,8.087.509,1.274,12.4-3.763.439,1.076c-5.693,2.592-11.418,5.133-17.066,7.82A61.586,61.586,0,0,0,783.526,295.759Z" transform="translate(-230.766 -61.167)"/>
      <path id="Tracé_708" data-name="Tracé 708" d="M262.266,246.211l-.981-.051c-5.8-.949-6.438-4.375-5.234-9.514,2.866-12.227,5.005-24.631,7.985-36.826,3.636-14.85,7.833-29.56,11.787-44.334l4.407-15.067.809.229-5.489,25.472C269.3,192.523,262.145,218.765,262.266,246.211Z" transform="translate(-49.334 -13.013)"/>
      <path id="Tracé_709" data-name="Tracé 709" d="M738.84,650.763l7.743-2.5,52.281,70.519-1.713,1.274-51.205-69.144c-2.458,2.649-2.414,2.617-.045,5.731q18.187,23.988,36.3,48.015a14.506,14.506,0,0,1,2.9,7.2Z" transform="translate(-224.868 -197.461)"/>
      <path id="Tracé_710" data-name="Tracé 710" d="M535.164,382.8l-3.534-1.21c6.26-6.444,14.385-7.508,22.657-7.2,5.693.21,10.144-.395,12.526-6.483.866-2.2,3.184-3.821,5.273-6.164-9.386-5.687-13.838-14.545-16.614-24.612-.388-1.414-2.764-2.28-4.222-3.4l4.3-6.629c1.274,4.731,2.388,9.52,3.872,14.188a34.636,34.636,0,0,0,12.38,17.588c3.649,2.751,7.291,3.91,11.462,1.274q7.259-4.528,14.532-9.03l.9.9-8.094,6.858,3.445,8.852-2.076-1.108c-2.108-4.343-5-6.438-9.807-3.636a4.26,4.26,0,0,1-2.675.363c-7.552-1.363-10.138,3.821-13.29,10.654l15.194-5.426c.115,2.273.2,3.954.287,5.636l-1.1.146-2.006-2.821v1.783c-8.164,1.191-16.327,2.4-24.5,3.56-4.852.681-9.775.993-14.532,2.07C537.858,379.286,536.6,381.451,535.164,382.8Z" transform="translate(-149.609 -80.816)"/>
      <path id="Tracé_711" data-name="Tracé 711" d="M325.712,860.7c3.3,1.025,6.565,2.178,9.9,3.044,8.132,2.1,16.289,4.056,24.727,6.139a22.6,22.6,0,0,1-4.2,1.974c-14.277,3.681-28.554,7.323-42.895,10.685-3.184.745-7.113,1.859-8.667-2.974l1.146-1.2c1.229.9,2.624,2.738,3.668,2.547,10.246-1.745,20.441-3.821,30.649-5.807l-.134-1.592-36.062-2.732-1.184-1.14c10.673.452,21.345.961,32.025,1.344a42.668,42.668,0,0,0,12.4-1.051l-25.816-8.157Z" transform="translate(-66.447 -274.62)" fill="#010101"/>
      <path id="Tracé_712" data-name="Tracé 712" d="M670.489,389.082c1.363,1.363,3.248,2.484,4.025,4.127,11.233,23.632,16.13,48.4,12.519,74.506-.745,5.355-3.152,9.775-9.431,10.386l-2.585,4.139-1.274-3.929c-14.876-7.731-27.733-17.257-31.2-23.479,1.509,1.032,2.509,1.719,3.515,2.394,8.145,5.508,16.1,11.316,24.485,16.417,7.425,4.515,13.252,1.91,14.888-6.648.968-5.05.382-10.4.5-15.608q-2.356-16.359-4.706-32.719-5.336-14.806-10.673-29.618Z" transform="translate(-189.892 -103.316)"/>
      <path id="Tracé_713" data-name="Tracé 713" d="M531.733,453.3l-2.547.879-3.038-4.165,1.707-.229.541.1.516.083a10.281,10.281,0,0,0-.637-2.248c-6.368-11.462-12.023-23.441-19.371-34.247-4.458-6.5-11.462-11.22-18.225-16.092q6.05,13.787,12.1,27.561l-2.184.93c-4.318-10.329-8.864-20.575-12.838-31.031-1.407-3.719,2-7.406,5.89-7.419l-1.2,3.152c-4.114,2.687-.146,4.005,1.185,4.986,18.4,13.538,27.42,33.591,37.1,53.179C531.433,450.087,531.427,451.775,531.733,453.3Z" transform="translate(-133.556 -102.724)"/>
      <path id="Tracé_714" data-name="Tracé 714" d="M806.68,835.794l27.382-27.306,1.325,1.274-14.952,14.264.968,1.344,25.676-17.709.828,1.006-14.251,11.463,13.812-4.986a17.725,17.725,0,0,1-3.184,2.8c-12.437,6.61-24.931,13.124-37.406,19.664C806.814,837.016,806.744,836.4,806.68,835.794Z" transform="translate(-249.507 -255.355)"/>
      <path id="Tracé_715" data-name="Tracé 715" d="M514.814,628.012c-6.763-15.99-7.712-32.693-6.171-50.1l-26.816,43.825-1.337-.86c9.106-16.557,18.263-33.044,30.6-47.824a166.2,166.2,0,0,0,3.719,54.962Z" transform="translate(-131.035 -170.145)" fill="#010101"/>
      <path id="Tracé_716" data-name="Tracé 716" d="M651.018,543c-16.519-1.318-30.165-9-42.666-19.238q-7.12-5.827-14.271-11.615c.083-.688.172-1.382.255-2.07-4.859-2.547-9.686-5.222-14.589-7.7-3.948-1.993-7.992-3.783-12-5.661l.5-.9,1.592-.159L601.379,508.9l-3.069,2.216,9.9,8.82c11.985,11.736,26.491,18.582,42.761,21.982A10.136,10.136,0,0,0,651.018,543Z" transform="translate(-162.728 -142.033)"/>
      <path id="Tracé_717" data-name="Tracé 717" d="M371.394,640.15l4.458,2.547q1.528,4.865,3.05,9.724c-.312.465-.637.93-.942,1.388l-5.005-9.552c-5.018,4.369-4.948,8.68-2.025,14.328,8.718,16.824,16.862,33.948,25.115,51.014a74.527,74.527,0,0,1,2.974,8.6q-10.533-19.62-21.065-39.252c-1.025-1.91-2.089-3.821-3.133-5.731L362.67,643.8l.923-1.216c.962,1.738,1.91,3.477,3.33,6.05C368.611,645.423,370,642.786,371.394,640.15Z" transform="translate(-88.243 -194.516)" fill="#010101"/>
      <path id="Tracé_718" data-name="Tracé 718" d="M274.717,163.288c-3.955,14.774-8.151,29.484-11.787,44.334-2.98,12.195-5.094,24.6-7.986,36.826-1.2,5.139-.567,8.565,5.234,9.514-7.724,0-8.227-.5-7.38-7.368,3.6-29.025,12.36-56.79,20.664-84.694Z" transform="translate(-48.228 -20.815)"/>
      <path id="Tracé_719" data-name="Tracé 719" d="M223.555,707.63c6.623,11.068,14.105,21.721,19.677,33.292,7.546,15.678,13.64,32.057,20.378,48.136l-1.77.879a60.234,60.234,0,0,1-2.776-5.789c-9.157-25.472-20.282-49.982-35.234-72.659-.579-.879-.089-2.477-.1-3.738Z" transform="translate(-37.712 -219.024)" fill="#010101"/>
      <path id="Tracé_720" data-name="Tracé 720" d="M218.929,727.354q-2.394-3.286-4.789-6.565l.541-1.089,7.228,1.91-.083.8-3.534.261c16.869,22.925,24.2,49.581,32.687,75.7q-15-34.222-30.006-68.449Z" transform="translate(-34.296 -223.408)" fill="#010101"/>
      <path id="Tracé_721" data-name="Tracé 721" d="M286.664,152.906l-1.274-1.363c.694-2.827,1.274-5.68,2.1-8.476,2.757-9.7,8.775-12.22,18.384-7.3-.567,4.458-1.165,9.144-1.758,13.812-.408-.815-.822-1.624-1.229-2.433.216-1.98.777-4,.554-5.929-.2-1.745-1.274-3.394-1.91-5.094l-1.484.376-5.731,26.351-1.274-3.662q2.547-11.641,5.094-23.3l-1.535-.968c-.917,1.369-2.312,2.617-2.675,4.12-2.184,9.011-4.133,18.085-6.164,27.134l-1.4-2.624,5.489-25.472-.809-.229Z" transform="translate(-60.174 -10.433)"/>
      <path id="Tracé_722" data-name="Tracé 722" d="M217.44,731.72l2.044,2.585-6.712.891c14.646,22.81,19.875,48.136,27.2,72.7-10.443-24.326-15.283-50.944-29.93-73.27Z" transform="translate(-32.807 -227.774)" fill="#010101"/>
      <path id="Tracé_723" data-name="Tracé 723" d="M279.422,180.79l1.4,2.624c-3.515,16.913-7.387,33.75-10.393,50.759-1.477,8.368-1.458,17.015-1.853,25.548-.083,1.732,1.013,3.528,1.114,6.03l-3.553-4.878C265.992,233.428,273.144,207.185,279.422,180.79Z" transform="translate(-53.182 -27.676)"/>
      <path id="Tracé_724" data-name="Tracé 724" d="M123.041,575.35l-1.019,3.713,58.191-33.343.866.955h.038l-15.283,9.915-17.3,10.189-18.919,10.609-8.635,4.273,7.966,10.463c-9.348-4.458-11.392-9.991-7.081-16.856Z" transform="translate(0 -160.219)"/>
      <path id="Tracé_725" data-name="Tracé 725" d="M373,812.276c1.038-2.452,1.726-5.164,3.248-7.272,1.013-1.407,3.426-1.719,4.846-2.948a43.574,43.574,0,0,0,4.349-5.037l17.225-13.067,16.7-11.131c-3.006,3.273-5.368,6.553-8.4,9.011-6.081,4.929-12.793,9.087-18.728,14.175-4.91,4.2-9.081,9.272-13.577,13.959-.751,1.471-1.509,2.936-2.267,4.407L373,818.23Z" transform="translate(-91.994 -242.701)" fill="#010101"/>
      <path id="Tracé_726" data-name="Tracé 726" d="M291.038,174l1.274,3.662c-1.834,11.462-3.942,22.867-5.432,34.387-1.879,14.462-3.248,28.993-4.872,43.493a10.4,10.4,0,0,1-2.108,5.731c.758-10.38,1.07-20.817,2.369-31.127,2.235-17.716,5.094-35.361,7.693-53.026A17.545,17.545,0,0,1,291.038,174Z" transform="translate(-58.181 -25.21)"/>
      <path id="Tracé_727" data-name="Tracé 727" d="M783.622,124.14q14.939,39.564,29.885,79.122l-1.42.548c-11.048-25.663-21.014-51.734-29.637-78.365Z" transform="translate(-240.707 -7.101)"/>
      <path id="Tracé_728" data-name="Tracé 728" d="M221.49,499.115a368.708,368.708,0,0,1,27.656-66.7c2.286,4.222,4.426,8.183,6.565,12.144l-1.1.821-6.145-7.572c-1.025,2.356-1.91,4.413-2.821,6.464l-10.87,25.294q-2.222,5.451-4.458,10.921c-1.433,3.528-2.738,7.113-4.349,10.558C224.68,493.823,223,496.427,221.49,499.115Z" transform="translate(-36.966 -119.064)"/>
      <path id="Tracé_729" data-name="Tracé 729" d="M124.272,550.925l-1.172-.07c6.776-12.863,13.43-25.79,20.378-38.571,6.234-11.494,12.781-22.817,20.1-33.814a13.8,13.8,0,0,1-.828,2.694q-18.091,33.349-36.266,66.647A31.67,31.67,0,0,1,124.272,550.925Z" transform="translate(-1.231 -135.793)"/>
      <path id="Tracé_730" data-name="Tracé 730" d="M770.012,134.44l30.1,72.315A441.38,441.38,0,0,1,769,136.637Z" transform="translate(-235.822 -10.842)"/>
      <path id="Tracé_731" data-name="Tracé 731" d="M307.161,155c.408.809.822,1.617,1.229,2.433q-5.024,37.686-10.081,75.391-.6-1.821-1.21-3.649c2.019-15.532,3.993-31.063,6.069-46.588C304.43,173.384,305.837,164.208,307.161,155Z" transform="translate(-64.427 -18.309)"/>
      <path id="Tracé_732" data-name="Tracé 732" d="M409.707,673.79l34.311,67.322c-15.582-20.123-23.848-44.258-36.3-66.113Z" transform="translate(-104.605 -206.734)" fill="#010101"/>
      <path id="Tracé_733" data-name="Tracé 733" d="M412.8,811.977c-10.679,5.285-22.925,7.5-31.713,16.474L380,827.081c3.547-2.706,6.846-5.846,10.7-8.011a136.993,136.993,0,0,1,14.965-6.756c10.9-4.534,21.014-10.119,27.382-19.384l4.114,5.973,2.082.987-4.4,2.28c-.771-1.363-1.547-2.732-2.2-3.878Z" transform="translate(-94.537 -250.005)" fill="#010101"/>
      <path id="Tracé_734" data-name="Tracé 734" d="M613.049,590.235c-4.852,6.635-11.29,8.4-18.837,5.655-14.748-5.349-29.414-10.921-44.124-16.378a21.274,21.274,0,0,1-6.069-2.891c1.911.267,3.974.21,5.77.847q22.18,7.833,44.27,15.952c7,2.547,12.889,1.223,17.665-4.6Z" transform="translate(-154.109 -171.442)" fill="#010101"/>
      <path id="Tracé_735" data-name="Tracé 735" d="M342.894,638.443l-.923,1.216-3.184-6.069c-4.2,22.332-17.83,37.571-33.037,51.676,3.865-4.865,7.673-9.775,11.6-14.583,9.355-11.431,17.092-23.663,19.639-38.565.134-.79.688-1.5,1.611-3.42Z" transform="translate(-67.569 -190.357)" fill="#010101"/>
      <path id="Tracé_736" data-name="Tracé 736" d="M325.607,759.429l12.169,23.855-1.1,2.2L306,724.029c0-.407,0-.821.032-1.229q8.164,15.512,16.34,31.031C323.385,755.735,324.524,757.569,325.607,759.429Z" transform="translate(-67.66 -224.534)" fill="#010101"/>
      <path id="Tracé_737" data-name="Tracé 737" d="M376.732,190.193q-4.948,34.005-9.909,68l-2.063-.3q4.935-34.081,9.883-68.138Z" transform="translate(-89.002 -30.934)"/>
      <path id="Tracé_738" data-name="Tracé 738" d="M721.981,794.071,687.81,741.643l1.273-1.273,34.26,52.332C722.872,793.173,722.426,793.625,721.981,794.071Z" transform="translate(-206.334 -230.916)"/>
      <path id="Tracé_739" data-name="Tracé 739" d="M138.66,595.112l53.88-31.362,1.108,1.91-53.905,31.362Z" transform="translate(-6.882 -166.767)"/>
      <path id="Tracé_740" data-name="Tracé 740" d="M386.64,660.808c.318-.458.637-.923.942-1.388l2.738,3.974c4.489,9.106,8.883,18.257,13.5,27.3,3.885,7.642,8.062,15.067,12.016,22.645a44.49,44.49,0,0,1,1.974,5.336l-1.758.809Z" transform="translate(-96.949 -201.514)" fill="#010101"/>
      <path id="Tracé_741" data-name="Tracé 741" d="M274.564,715.529c0,.407,0,.821-.032,1.229-3.617-1.07-7.393-3.407-10.826-3a69.3,69.3,0,0,1-41.666-7.89l.159.121-2.84-2.433.344-.777c3.859,1.49,7.814,2.764,11.552,4.515,7.769,3.649,15.837,4.719,24.37,4.177C262.2,711.039,269.107,710.25,274.564,715.529Z" transform="translate(-36.192 -217.263)" fill="#010101"/>
      <path id="Tracé_742" data-name="Tracé 742" d="M428.491,810.83A197.159,197.159,0,0,1,375,840.836l37.062-21.4c2.942-1.694,5.84-3.477,8.839-5.094C423.352,813.065,425.944,812,428.491,810.83Z" transform="translate(-92.721 -256.507)" fill="#010101"/>
      <path id="Tracé_743" data-name="Tracé 743" d="M258.4,474.188c-6.667,17.162-13.545,34.222-23.479,49.88L257.17,471.8Z" transform="translate(-41.844 -133.371)"/>
      <path id="Tracé_744" data-name="Tracé 744" d="M190.31,455.28,236.6,426.14l1.127,1.8-46.34,29.216Z" transform="translate(-25.641 -116.787)"/>
      <path id="Tracé_745" data-name="Tracé 745" d="M835.427,790.492Q816.654,810.3,797.9,830.145a216.309,216.309,0,0,1,37.355-41.825Z" transform="translate(-246.318 -248.331)"/>
      <path id="Tracé_746" data-name="Tracé 746" d="M798.15,819.485a196.019,196.019,0,0,1,36.393-38.845l-35.164,40.118Z" transform="translate(-246.409 -245.542)"/>
      <path id="Tracé_747" data-name="Tracé 747" d="M626.38,379.627l2.076,1.108c1.121.541,2.643,1.834,3.3,1.49,4.146-2.2,8.106-4.77,11.411-6.782-2.051-4.33-3.42-7.209-4.789-10.087.395-.783.79-1.566,1.178-2.356,1.777,6.26,5.61,9.788,12.252,11.138,4.458.9,8.552,3.592,12.812,5.483l.051-.032-5.54-.72a82.915,82.915,0,0,1-8.278-2.624c-3.744-1.6-6.094-.726-8.8,2.439a21.943,21.943,0,0,1-8.953,5.731C628.131,386.237,626.737,384.944,626.38,379.627Z" transform="translate(-184.022 -93.855)"/>
      <path id="Tracé_748" data-name="Tracé 748" d="M687.93,684.059c5.731-15.684,13.061-30.5,23.294-43.729q-11.042,23.039-22.1,46.079Z" transform="translate(-206.377 -194.581)"/>
      <path id="Tracé_749" data-name="Tracé 749" d="M767.14,804.941l30.719-40.2,1.8,1.388-31.26,40.118Z" transform="translate(-235.146 -239.767)"/>
      <path id="Tracé_750" data-name="Tracé 750" d="M807,841.707c12.475-6.54,24.969-13.054,37.406-19.664a17.468,17.468,0,0,0,3.184-2.8l6.081-.337-.72,2.547c-.943,0-2.076-.408-2.808,0-13.87,7.228-27.7,14.544-41.538,21.842Z" transform="translate(-249.624 -259.441)"/>
      <path id="Tracé_751" data-name="Tracé 751" d="M315.35,842.487a13.414,13.414,0,0,1,14.837-2.241,101.976,101.976,0,0,1,15.92,9.272c5.26,3.56,10.443,6.661,17.194,4.808l-.057,1.6c-3.5,0-7.158.637-10.463-.185-3.057-.745-5.96-2.726-8.533-4.687C335.7,844.55,327.124,838.494,315.35,842.487Z" transform="translate(-71.056 -266.723)" fill="#010101"/>
      <path id="Tracé_752" data-name="Tracé 752" d="M378.31,826.9c.758-1.471,1.516-2.936,2.267-4.407q15.812-6.954,31.63-13.9a37.877,37.877,0,0,1,3.821-1.274l.637,1.567c-5.381,2.273-10.7,4.7-16.156,6.788-8.043,3.082-15.78,6.553-21.3,13.564Z" transform="translate(-93.923 -255.232)" fill="#010101"/>
      <path id="Tracé_753" data-name="Tracé 753" d="M809.52,844.625c13.838-7.3,27.669-14.615,41.538-21.842.732-.382,1.866,0,2.808,0L812.43,844.835Z" transform="translate(-250.539 -260.786)"/>
      <path id="Tracé_754" data-name="Tracé 754" d="M336.332,303.038l-40.214,13.685-.688-2.038L335.644,301Z" transform="translate(-63.821 -71.336)"/>
      <path id="Tracé_755" data-name="Tracé 755" d="M242.35,476.313,253.22,451l1.223,5.559c-.42-.363-.834-.732-1.274-1.1q-4.458,9.431-8.966,18.856l1.439.637q3.674-7.158,7.361-14.315c.471.471.936.943,1.407,1.407q-4.381,8.807-8.762,17.607Z" transform="translate(-44.542 -125.816)"/>
      <path id="Tracé_756" data-name="Tracé 756" d="M159.337,579.918l18.76-9.788.637.834a14.2,14.2,0,0,1-2.452,2.165Q159,582.446,141.653,591.6a1.14,1.14,0,0,1-.993-.1c-.178-.146-.115-.637-.159-.923Z" transform="translate(-7.55 -169.084)"/>
      <path id="Tracé_757" data-name="Tracé 757" d="M421.28,627.139l2.178-2.089c8.463,8.839,17.48,16.856,30,19.664-.115.478-.236.962-.35,1.439a33.508,33.508,0,0,1-5.865-1.025,55.064,55.064,0,0,1-24.428-17.6C422.554,627.2,421.8,627.26,421.28,627.139Z" transform="translate(-109.53 -189.031)" fill="#010101"/>
      <path id="Tracé_758" data-name="Tracé 758" d="M328.541,134.48l33.3,22.371-1.108,1.694L327.35,136.46Z" transform="translate(-75.414 -10.856)"/>
      <path id="Tracé_759" data-name="Tracé 759" d="M706.732,138.149c-.44-.885-.879-1.764-1.312-2.649,7.075-8.514,14.207-17,21.18-25.593,1.216-1.5,1.777-3.528,2.643-5.317l2.273,2.216Z" transform="translate(-212.73 0)"/>
      <path id="Tracé_760" data-name="Tracé 760" d="M766.551,124.769l-1.019,2.2c-1.949-5.432-3.9-10.826-6.062-16.9a11.509,11.509,0,0,0,2.91.185c2.872-.764,7.406-3.184,8.278-2.21,2.363,2.668,3.184,6.686,4.649,10.189l-1.172,1.274c-1.2-3.184-2.388-6.368-3.693-9.813l-7.572,3.521Z" transform="translate(-232.361 -1.17)"/>
      <path id="Tracé_761" data-name="Tracé 761" d="M800.375,851.547l2.91.236c-2.445,1.14-4.986,2.108-7.3,3.451-5.005,2.9-8.8,1.528-11.641-2.547l8.794-11.017,1.229,1.274L788,851.706c2.165,4.056,4.311,4.216,6.9.306a28.814,28.814,0,0,1,3.674-3.821c.064.637.134,1.223.2,1.828Z" transform="translate(-241.393 -267.708)"/>
      <path id="Tracé_762" data-name="Tracé 762" d="M245.438,484.356q4.381-8.8,8.762-17.607l2.426-2.808.828.439q-7.285,16.054-14.525,32.076l-1.229-.427Q243.572,490.214,245.438,484.356Z" transform="translate(-44.306 -130.516)"/>
      <path id="Tracé_763" data-name="Tracé 763" d="M409.735,786.89,392.51,799.957c.853-1.847,1.242-4.222,2.643-5.438,5.445-4.738,11.208-9.1,16.856-13.609Z" transform="translate(-99.081 -245.64)" fill="#010101"/>
      <path id="Tracé_764" data-name="Tracé 764" d="M537.046,471.769l-1.707.229c-7.24-7.642-14.487-15.315-22.759-24.058C522.24,455.652,530.238,463.045,537.046,471.769Z" transform="translate(-142.69 -124.705)" fill="#2c2c2c"/>
      <path id="Tracé_765" data-name="Tracé 765" d="M369.542,830.7l.911,2.324c-3.56,5.591-5.438,5.731-8.565.452-2.643-4.458-5.152-9-7.718-13.5l1.1-2.2,8.915,15.6c.821-1.98,1.395-3.375,1.968-4.77v5.954Z" transform="translate(-85.155 -259.031)" fill="#010101"/>
      <path id="Tracé_766" data-name="Tracé 766" d="M219.009,526.533c1.509-2.687,3.184-5.292,4.458-8.075,1.611-3.445,2.917-7,4.349-10.558.274.7.541,1.4.815,2.1-2.051,5.19-4.235,10.335-6.075,15.6-.56,1.592-.185,3.521-.236,5.292l-1.7,3.872-5.094-1.821-.866-.955C217.8,531.481,218.417,529.016,219.009,526.533Z" transform="translate(-34.485 -146.482)"/>
      <path id="Tracé_767" data-name="Tracé 767" d="M854.237,787.085l-.172-2.2c1.134-1.809,2.273-3.617,3.732-5.948l3.107,1.076-4.362,5.636c4.7,3.139,3.095,6.043-.344,8.915-1.8,1.509-3.458,3.184-5.184,4.8l-1.325-1.274,8.514-8.476Z" transform="translate(-265.129 -244.924)"/>
      <path id="Tracé_768" data-name="Tracé 768" d="M696.7,555.083a10.153,10.153,0,0,1-.044-1.076c.363-1.56,1.273-3.235.987-4.649-1.159-5.476-2.706-10.864-4.107-16.289l2.585-4.139c1.356,7.425,2.547,14.882,4.126,22.288C700.965,554.548,700.666,556.293,696.7,555.083Z" transform="translate(-208.415 -154.12)"/>
      <path id="Tracé_769" data-name="Tracé 769" d="M762.125,307.806l-9.042,7.323.382,1.452,11.8-2.388c-4.273,1.783-8.52,3.649-12.857,5.279-.777.287-2.643-.21-2.738-.637a3.753,3.753,0,0,1,.637-3.133c3.439-3.184,7.081-6.1,10.654-9.113Z" transform="translate(-228.769 -73.367)"/>
      <path id="Tracé_770" data-name="Tracé 770" d="M294.67,271.48q.637,1.821,1.21,3.649-1.91,12.736-3.757,25.523l-1.783-.28Q292.511,285.929,294.67,271.48Z" transform="translate(-61.972 -60.615)"/>
      <path id="Tracé_771" data-name="Tracé 771" d="M449,807.405c-2.547,1.172-5.145,2.235-7.642,3.541-3,1.586-5.9,3.369-8.839,5.094l-1.057-.955,19.8-13.685c.637,1.146,1.433,2.515,2.2,3.878Z" transform="translate(-113.227 -253.082)" fill="#010101"/>
      <path id="Tracé_772" data-name="Tracé 772" d="M226.7,529.777c.051-1.77-.325-3.7.236-5.292,1.84-5.266,4.025-10.412,6.075-15.6l2.165-4.044,1.573.713Z" transform="translate(-38.829 -145.371)"/>
      <path id="Tracé_773" data-name="Tracé 773" d="M154.6,580.449l2.547-.229.822,1.1-2.426,1.274-18.913,10.641-3.623.771,2.611-2.91Z" transform="translate(-4.83 -172.749)"/>
      <path id="Tracé_774" data-name="Tracé 774" d="M499.388,673.859,488.41,671.84c9.73.484,19.225-.427,28.9-5.82C513.57,671.057,506.858,673.719,499.388,673.859Z" transform="translate(-133.911 -203.912)" fill="#010101"/>
      <path id="Tracé_775" data-name="Tracé 775" d="M389.118,657.848l-2.738-3.974q-1.522-4.859-3.05-9.724l8.864,10.826Z" transform="translate(-95.746 -195.969)" fill="#010101"/>
      <path id="Tracé_776" data-name="Tracé 776" d="M757.828,825.945l1.274,1.274c-8.7,13.245-7.724,10.3-14.888.8-.987-1.273-1.815-2.726-2.713-4.095.446-.446.892-.9,1.331-1.35l8.762,12.137Z" transform="translate(-225.834 -260.771)"/>
      <path id="Tracé_777" data-name="Tracé 777" d="M685.5,709l1.2,2.35a10.183,10.183,0,0,1-.758,2.547c-3.184,5.215-3.362,10.233.726,15.079L685.4,730.25C677.907,723.15,682.219,716.088,685.5,709Z" transform="translate(-203.952 -219.522)"/>
      <path id="Tracé_778" data-name="Tracé 778" d="M254.1,463.227q-3.674,7.164-7.361,14.315l-1.439-.637q4.458-9.431,8.966-18.856c.414.369.828.739,1.274,1.1Z" transform="translate(-45.614 -128.377)"/>
      <path id="Tracé_779" data-name="Tracé 779" d="M651.664,587.169c-.446-.465-.885-.93-1.325-1.4q4.891-8.788,9.775-17.588l1.516.764Z" transform="translate(-192.724 -168.376)"/>
      <path id="Tracé_780" data-name="Tracé 780" d="M206.611,551.25c-4.063,5.91-10.189,8.915-16.9,11.252.892-.942,1.789-1.879,2.681-2.815Z" transform="translate(-25.423 -162.227)"/>
      <path id="Tracé_781" data-name="Tracé 781" d="M155.425,579.937l-18.958,10.622-1.2-1.14L154.2,578.81Z" transform="translate(-5.651 -172.237)"/>
      <path id="Tracé_782" data-name="Tracé 782" d="M271.089,464.8l-1.229-2.388q3.184-8.234,6.317-16.455l1.745.637Q274.5,455.7,271.089,464.8Z" transform="translate(-54.534 -123.986)"/>
      <path id="Tracé_783" data-name="Tracé 783" d="M138.74,594.551l18.913-10.641,1.044,1.013-18.862,10.685Z" transform="translate(-6.911 -174.089)"/>
      <path id="Tracé_784" data-name="Tracé 784" d="M327.666,859.963l-4.458,1.082-15.169,2.121C310.944,858.925,318.84,857.307,327.666,859.963Z" transform="translate(-68.401 -273.883)" fill="#010101"/>
      <path id="Tracé_785" data-name="Tracé 785" d="M424.248,576.47l1.134,1.2-9.2,14.5-1.426-.866Q419.5,583.889,424.248,576.47Z" transform="translate(-107.162 -171.387)" fill="#010101"/>
      <path id="Tracé_786" data-name="Tracé 786" d="M600.467,515.845c-.083.688-.172,1.382-.255,2.07l-15.582-5.222,2.242-1.083Z" transform="translate(-168.859 -147.83)"/>
      <path id="Tracé_787" data-name="Tracé 787" d="M207.493,549.79l-14.22,8.438-1.134-1.083,15.283-9.915C207.449,548.083,207.468,548.937,207.493,549.79Z" transform="translate(-26.306 -160.767)"/>
      <path id="Tracé_788" data-name="Tracé 788" d="M617.609,341.352c1.369,2.878,2.738,5.731,4.789,10.087-3.305,2.012-7.266,4.579-11.412,6.782-.637.344-2.178-.949-3.3-1.49l-3.445-8.82,8.132-6.833-.9-.9q-7.291,4.547-14.564,9c-4.177,2.611-7.82,1.452-11.462-1.274a34.637,34.637,0,0,1-12.379-17.588c-1.484-4.668-2.592-9.456-3.872-14.188,7.527-13.239,12.736-17.7,21.7-19.225,3.114,5.171,5.629,10.405,9.132,14.85,2.726,3.458,6.47,5.024,10.826,1.032,1.223-1.121,6.107-.72,6.413.083.872,2.312,1.35,6.05.051,7.68-5,6.285-5.2,6.769-1.274,13.615C617.164,336.207,617.106,338.939,617.609,341.352Z" transform="translate(-163.254 -69.851)" fill="#fefefe"/>
      <path id="Tracé_789" data-name="Tracé 789" d="M647.648,448.583c1.471,6.935-3.184,12-5.731,17.614-1.745,3.91-5.814,2.681-8.591,1-5.693-3.445-11.074-7.419-16.557-11.189-.446-.306-.8-.745-1.242-1.064-6.814-4.967-6.8-5.375.586-11.462,4.222,2.725,8,7.349,14.01,3.929l4.763,1.172a7.948,7.948,0,0,0-3.732-3.413c-4.133-1.783-5.419-4.419-5.336-9.2.115-6.776-1.477-13.577-2.337-20.378-.688.1-.382,2.98-1.07,3.076,1.025,7.992,1.057,13.182,2.063,21.091l-12.647-4.349c-2.331-4.9-4.5-9.883-7.113-14.646-.554-1-2.745-1.1-4.177-1.6-.286,1.458-.892,2.936-.783,4.368.121,1.547.9,3.05,1.567,5.133l-10.189.586c-1.414-9.246-2.738-17.869-4.063-26.5.509-2.369,1.013-4.731,1.707-7.979-2.439.452-3.764.777-5.094.936-8.1.981-16.181,2.369-24.313,2.751-7.642.357-15.341-.4-22.2,4,1.439-1.35,2.694-3.515,4.349-3.884,4.757-1.076,9.679-1.388,14.532-2.07,8.17-1.159,16.334-2.369,24.5-3.56v-1.783l2.006,2.821,1.1-.146c-.089-1.681-.172-3.362-.287-5.636l-15.194,5.426c3.184-6.858,5.731-12.016,13.29-10.654a4.26,4.26,0,0,0,2.675-.363c4.808-2.8,7.7-.707,9.807,3.636.357,5.317,1.751,6.61,6.7,4.789A21.942,21.942,0,0,0,609.6,385.3c2.706-3.184,5.056-4.044,8.8-2.439a86.19,86.19,0,0,0,8.278,2.624c1.07,1.573,2.108,3.184,3.216,4.725,1.025,1.426,2.547,2.636,3.114,4.216,1.7,4.916,2.7,10.1,4.649,14.9,1,2.471,3.445,4.349,5.234,6.5Q645.317,432.217,647.648,448.583Z" transform="translate(-151.621 -100.512)" fill="#fefefe"/>
      <path id="Tracé_790" data-name="Tracé 790" d="M598.556,415c1.325,8.629,2.649,17.251,4.063,26.5l10.189-.586c-.637-2.082-1.445-3.585-1.567-5.133-.108-1.433.5-2.91.783-4.368,1.433.509,3.623.6,4.177,1.6,2.617,4.744,4.782,9.73,7.113,14.646l-1.382.191-7.419-13.564-1.108.522c.414,2.076.822,4.158,1.426,7.247l-20.053,3.375,10.252,2.242c.089.5.172,1,.255,1.5l-8.731,2.49,5.623,3.222c-.287.872-.567,1.745-.853,2.617l-14.232-1.554,1.057-1.624c-.159-1.789-.312-3.579-.522-5.954l4.757-.86-3.6-4.668,6.177-.962c.357-10.552-1.191-13.233-8.329-14.646,0-.408.057-.815.083-1.223l4.12-.4c.248-3.853-.834-5.623-4.731-4.515a22.853,22.853,0,0,1-4.878.331l-12.462-3.445,15.773-1.834,3.636,1.172-6.623,1.694c10.915,1.153,10.87,1.165,13.048,10.265.8,3.369,1.789,6.7,2.891,9.979a13.436,13.436,0,0,0,2.025,3.025l1.318-.6q-2.057-11.195-4.1-22.377Z" transform="translate(-163.095 -112.741)"/>
      <path id="Tracé_792" data-name="Tracé 792" d="M603.971,420.272q2.044,11.182,4.1,22.377l-1.318.6a13.293,13.293,0,0,1-2.025-3.025c-1.1-3.28-2.089-6.61-2.891-9.979-2.178-9.1-2.133-9.113-13.048-10.265l6.623-1.694c1.56-.261,3.222-.981,4.642-.637S602.679,419.348,603.971,420.272Z" transform="translate(-170.37 -113.67)" fill="#f0f0f0"/>
      <path id="Tracé_796" data-name="Tracé 796" d="M518.755,404.894l-4.585-9.584c.439-.452.872-.9,1.312-1.35l8.469,13.054c.07.567.134,1.133.2,1.707l-3.267,2.4-3.382-4.884C517.927,405.792,518.341,405.34,518.755,404.894Z" transform="translate(-143.268 -105.099)"/>
      <path id="Tracé_797" data-name="Tracé 797" d="M530.144,492.38l4.228,2.057-1.592.159-.5.9c4.005,1.91,8.049,3.668,12,5.661,4.9,2.477,9.73,5.126,14.589,7.7l-13.6-4.235c-13.284-3.012-26.478-6.591-39.889-8.864-12.768-2.165-23.683,2.445-32.3,12.233a26.884,26.884,0,0,1-2.98,2.5c.471-10.755,5.7-16.62,15.754-16.92,10.749-.331,21.517.248,32.279.146C522.139,493.685,526.145,492.851,530.144,492.38Z" transform="translate(-127.261 -140.846)" fill="#f6f6f6"/>
      <path id="Tracé_798" data-name="Tracé 798" d="M694.023,418.257c-1.789-2.146-4.235-4.025-5.234-6.5-1.949-4.8-2.948-9.985-4.649-14.9-.548-1.579-2.089-2.789-3.114-4.216-1.108-1.547-2.146-3.152-3.216-4.725l5.094.637a.726.726,0,0,1,.579.471Z" transform="translate(-202.702 -102.906)" fill="#fefefe"/>
      <path id="Tracé_799" data-name="Tracé 799" d="M634.523,471.01c-1.732,2.745-3.152,5.782-5.324,8.119-1.051,1.133-3.5,1.114-5.349,1.318-2.98.325-5.986.408-10.01.637,1.668,5.8,3.057,10.615,4.458,15.436l1.273-.325c-.745-2.808-1.5-5.623-2.452-9.24,4.878,4.337,5.527,8.775,1.643,13.952-1.91-4.668-3.967-8.571-5.094-12.736-1.178-4.33-2.738-7.113-7.909-6.884-2.3.1-4.661-1.324-8.329-2.477,10.189,0,18.932.943,27.293-.484,3.184-.541,5.451-6.514,8.138-10.017Z" transform="translate(-173.508 -132.103)"/>
      <path id="Tracé_800" data-name="Tracé 800" d="M654.322,458.973l-2.382-3.77,1.554-.216,12.647,4.349c-1.006-7.909-1.675-13.736-2.7-21.728l1.707-2.439c.86,6.795,2.452,13.6,2.337,20.378-.083,4.782,1.2,7.419,5.336,9.2,2.076.891,3.757,2.694,4.942,6.069-6.635-4.005-12.838-8.743-19.505-12.7C657.416,457.611,655.659,458.623,654.322,458.973Z" transform="translate(-193.306 -120.067)"/>
      <path id="Tracé_801" data-name="Tracé 801" d="M541.825,423.144l30.9,5.457c0,.408-.057.815-.083,1.223l-42.3-5.693c.083-.7.159-1.4.242-2.1Z" transform="translate(-149.144 -115.294)"/>
      <path id="Tracé_802" data-name="Tracé 802" d="M557.906,313.757c-4.935-.872-8.972-8.094-7.718-14.207s-.408-9.444,6.8-16.047,7.845-9.628,14.844-9.711,7.871-3.738,16.99,0,12.456,7.833,18.034,14.564,8.367,17.544,7,25.472-3.235,12.984-3.528,16.678-3.916-8.406-4.012-11.908,4.992-6.043,4.356-10.5-4.075-5.406-6.814-4.3-6.782,3.821-10.826-1.032-8.278-11.794-9.119-14.411C582.646,284.522,561.186,314.337,557.906,313.757Z" transform="translate(-156.265 -60.844)"/>
    </g>
  </g>
</svg>
